<svg width="111" height="93" viewBox="0 0 111 93" fill="none" xmlns="http://www.w3.org/2000/svg"><path d="M81.642 10.393c10.86 3.32 22.374 12.12 26.965 24.47 4.592 12.352 2.332 28.253-6.559 35.973-8.89 7.719-24.414 7.256-37.46 11.193-13.117 4.014-23.83 12.428-31.41 10.112-7.506-2.239-11.88-15.207-17.928-26.863-5.976-11.656-13.555-22-15.013-34.274C-1.148 18.73 3.59 4.527 12.991.976c9.401-3.55 23.467 3.55 35.565 5.944 12.097 2.47 22.227.231 33.086 3.473z" fill="url(#a)"/><defs><linearGradient id="a" x1="55.462" x2="55.462" y2="92.537" gradientUnits="userSpaceOnUse"><stop stop-color="#FFCB35"/><stop offset="1" stop-color="#F06"/></linearGradient></defs></svg>