<svg width="12" height="12" viewBox="0 0 12 12" fill="none" xmlns="http://www.w3.org/2000/svg"><path d="M6 0C3.27 0 1.058.807 1.058 1.802v1.479c0 .996 2.213 1.802 4.942 1.802 2.73 0 4.943-.806 4.943-1.802V1.802C10.943.807 8.73 0 6 0z" fill="url(#a)"/><path d="M6.001 5.945c-2.606 0-4.754-.736-4.942-1.669-.01.045 0 2.443 0 2.443C1.059 7.714 3.272 8.52 6 8.52c2.73 0 4.943-.807 4.943-1.802 0 0 .005-2.398-.004-2.443-.188.934-2.333 1.67-4.939 1.67z" fill="url(#b)"/><path d="M10.939 7.756c-.188.932-2.332 1.669-4.938 1.669s-4.755-.737-4.943-1.67v2.443c0 .996 2.214 1.802 4.943 1.802 2.73 0 4.943-.806 4.943-1.802l-.005-2.442z" fill="url(#c)"/><defs><linearGradient id="a" x1="1.038" y1="-.022" x2="4.02" y2="6.887" gradientUnits="userSpaceOnUse"><stop stop-color="#FECA52"/><stop offset=".516" stop-color="#FFCE5F"/><stop offset="1" stop-color="#FF644E"/></linearGradient><linearGradient id="b" x1="1.035" y1="4.258" x2="3.217" y2="10.316" gradientUnits="userSpaceOnUse"><stop stop-color="#FECA52"/><stop offset=".516" stop-color="#FFCE5F"/><stop offset="1" stop-color="#FF644E"/></linearGradient><linearGradient id="c" x1="1.039" y1="7.737" x2="3.221" y2="13.795" gradientUnits="userSpaceOnUse"><stop stop-color="#FECA52"/><stop offset=".516" stop-color="#FFCE5F"/><stop offset="1" stop-color="#FF644E"/></linearGradient></defs></svg>