<svg width="293" height="245" viewBox="0 0 293 245" fill="none" xmlns="http://www.w3.org/2000/svg"><path opacity=".6" d="M72.769 193.986c-24.766-11.008-49.393-34.533-56.476-63.762-7.082-29.229 3.206-64.185 26.715-78.601 23.509-14.416 60.237-8.292 92.442-12.857 32.402-4.714 60.454-20.092 77.74-12.411 17.138 7.483 23.51 38.027 34.27 66.174 10.587 28.123 25.388 53.825 25.051 81.854-.51 28.006-16.159 58.338-39.589 63.23-23.43 4.891-54.642-15.658-82.637-24.992-27.971-9.507-52.726-7.8-77.516-18.635z" fill="url(#a)"/><defs><linearGradient id="a" x1="131.739" y1="225.893" x2="160.383" y2="18.166" gradientUnits="userSpaceOnUse"><stop stop-color="#FFCB35"/><stop offset="1" stop-color="#F06"/></linearGradient></defs></svg>