<svg width="90" height="79" viewBox="0 0 90 79" fill="none" xmlns="http://www.w3.org/2000/svg"><path d="M9.458 16.449h20.045a1.316 1.316 0 0 0 0-2.633H9.458a1.316 1.316 0 0 0 0 2.633zM9.458 24.091h16.58a1.316 1.316 0 0 0 0-2.632H9.458a1.316 1.316 0 0 0 0 2.633zM9.458 31.734h14.847a1.316 1.316 0 0 0 0-2.633H9.458a1.316 1.316 0 0 0 0 2.633zM9.458 39.377h16.58a1.316 1.316 0 0 0 0-2.633H9.458a1.316 1.316 0 0 0 0 2.633zM9.458 47.02h20.045a1.316 1.316 0 0 0 0-2.633H9.458a1.316 1.316 0 0 0 0 2.633zM9.458 54.663h38.246a1.316 1.316 0 1 0 0-2.633H9.458a1.316 1.316 0 0 0 0 2.633zM9.458 62.306h38.246a1.316 1.316 0 1 0 0-2.633H9.458a1.316 1.316 0 0 0 0 2.633zM47.704 67.315H9.458a1.316 1.316 0 0 0 0 2.633h38.246a1.316 1.316 0 1 0 0-2.633z" fill="#fff"/><path d="M88.075 59.64l-14.61-14.61a6.215 6.215 0 0 0-4.46-1.823l-3.914-3.912c4.635-7.442 3.723-17.38-2.736-23.838a19.297 19.297 0 0 0-5.291-3.753V4.578A3.98 3.98 0 0 0 53.087.602H42.943h1.02H4.076A3.98 3.98 0 0 0 .099 4.578v45.985a1.316 1.316 0 0 0 2.633 0V4.578c0-.74.602-1.343 1.343-1.343H14.22 53.087c.74 0 1.343.603 1.343 1.343v6.093a19.31 19.31 0 0 0-9.484-.494 1.316 1.316 0 1 0 .512 2.582 16.642 16.642 0 0 1 15.035 4.56c6.495 6.494 6.495 17.062 0 23.557-6.495 6.494-17.062 6.494-23.557 0-6.495-6.495-6.495-17.063 0-23.557a16.732 16.732 0 0 1 3.175-2.49 1.316 1.316 0 0 0-1.36-2.254 19.377 19.377 0 0 0-3.677 2.882c-7.52 7.521-7.52 19.76 0 27.28a19.23 19.23 0 0 0 13.64 5.641c1.93 0 3.858-.288 5.716-.861v27.507c0 .74-.602 1.343-1.343 1.343H4.075c-.74 0-1.343-.602-1.343-1.343V56.666a1.316 1.316 0 0 0-2.633 0v18.358A3.98 3.98 0 0 0 4.075 79h49.012a3.98 3.98 0 0 0 3.976-3.976V46.486c.63-.301 1.245-.642 1.846-1.016l3.913 3.913-.001.055c0 1.665.648 3.231 1.826 4.409l14.61 14.61a6.215 6.215 0 0 0 4.409 1.824 6.215 6.215 0 0 0 4.409-1.824A6.195 6.195 0 0 0 89.9 64.05a6.194 6.194 0 0 0-1.826-4.41zM40.31.602H16.853h6.835C24.415.602 28.2 1 24.6.4l.927.202h3.054C30.748.602 29.4 2.2 31.8 2.2l.711-1.598c0 .727.362 0 1.089 0h6.71zm23.283 45.829l-2.522-2.522a19.39 19.39 0 0 0 2.456-2.456l2.523 2.524a6.221 6.221 0 0 0-2.457 2.454zm22.62 20.165a3.607 3.607 0 0 1-5.094 0l-14.61-14.61a3.58 3.58 0 0 1-1.055-2.548c0-2.038 1.587-3.6 3.602-3.6a3.59 3.59 0 0 1 2.547 1.053l14.61 14.61a3.606 3.606 0 0 1 0 5.095z" fill="#fff"/><path d="M38.987 38.825a13.714 13.714 0 0 0 9.727 4.023c3.523 0 7.046-1.341 9.728-4.023 5.364-5.364 5.364-14.092 0-19.456-5.364-5.364-14.092-5.364-19.455 0-5.364 5.364-5.364 14.092 0 19.456zm9.727-20.847a11.09 11.09 0 0 1 7.867 3.253c4.337 4.337 4.337 11.395 0 15.732-4.338 4.337-11.395 4.337-15.733 0-4.337-4.337-4.337-11.395 0-15.732a11.089 11.089 0 0 1 7.866-3.253z" fill="#fff"/></svg>