<svg width="56" height="56" viewBox="0 0 56 56" fill="none" xmlns="http://www.w3.org/2000/svg"><g clip-path="url(#a)" fill="#fff"><path d="M27.016 19.414H6.809a.82.82 0 1 0 0 1.64h20.207a.82.82 0 1 0 0-1.64zM27.016 25.466H6.809a.82.82 0 1 0 0 1.64h20.207a.82.82 0 1 0 0-1.64zM27.836 32.338a.82.82 0 0 0-.82-.82H6.809a.82.82 0 1 0 0 1.64h20.207a.82.82 0 0 0 .82-.82zM6.81 37.57a.82.82 0 1 0 0 1.64h9.422a.82.82 0 1 0 0-1.64H6.809zM7.569 11.758h8.584c.871 0 1.58-.708 1.58-1.58v-2.91c0-.87-.709-1.579-1.58-1.579H7.569c-.871 0-1.58.709-1.58 1.58v2.91c0 .87.709 1.58 1.58 1.58zm.06-4.428h8.463v2.788H7.629V7.33z"/><path d="M22.367 54.36H4.706a2.836 2.836 0 0 1-2.833-2.833V4.473a2.836 2.836 0 0 1 2.833-2.832h26.733c.11 0 .219.01.326.029v5.615a4.478 4.478 0 0 0 4.473 4.473h5.615c.018.107.03.216.03.326v1.232a.82.82 0 1 0 1.64 0v-1.232c0-.958-.373-1.86-1.05-2.537l-8.497-8.496A3.564 3.564 0 0 0 31.439 0H4.706A4.478 4.478 0 0 0 .233 4.473v47.054A4.478 4.478 0 0 0 4.706 56h17.661a.82.82 0 1 0 0-1.64zM33.405 2.8l7.317 7.318h-4.484a2.836 2.836 0 0 1-2.833-2.833V2.801z"/><path d="M55.741 46.15a6.3 6.3 0 0 0-3.758-5.733c-1.869-.823-5.251-1.335-7.102-1.567a.305.305 0 0 1-.268-.301l-.011-2.543c.189-.14.374-.287.555-.445 1.337-1.161 2.192-2.815 2.409-4.623a2.086 2.086 0 0 0 1.788-2.071l-.006-1.399a2.073 2.073 0 0 0-.687-1.535l-.015-3.486a6.143 6.143 0 0 0-6.135-6.11h-.026l-5.483.023a3.118 3.118 0 0 0-2.922 2.08c-.005.014-.016.025-.024.025a3.129 3.129 0 0 0-3.117 3.143l.018 4.4c-.427.39-.676.944-.674 1.54l.006 1.4c.002.555.221 1.077.616 1.47.327.323.741.526 1.19.585.232 1.806 1.1 3.453 2.447 4.603.183.156.37.302.559.44l.01 2.542a.306.306 0 0 1-.264.303c-1.849.248-5.227.79-7.09 1.628a6.299 6.299 0 0 0-3.71 5.765l.027 6.243A3.49 3.49 0 0 0 27.558 56H52.295c.933-.004 1.813-.395 2.476-1.1.637-.676 1-1.59.996-2.507l-.026-6.243zm-10.774-5.635c.19.024.404.054.636.087a.325.325 0 0 1 .275.24.325.325 0 0 1-.103.352l-2.812 2.435a.339.339 0 0 1-.42.02l-.012-.01-1.18-.842 3.616-2.282zm-5.091 1.273l-3.445-2.134c.204-.31.323-.68.321-1.072l-.007-1.6c1.92.812 4.141.874 6.22-.027l.007 1.6c.002.394.124.762.33 1.07l-3.426 2.163zm1.18 2.815l-.56 1.332-1.212.005-.566-1.326 1.166-.847 1.172.836zm-6.993-24.497a1.674 1.674 0 0 0 1.564-1.122c.206-.586.762-.98 1.382-.983l5.483-.023h.019a4.5 4.5 0 0 1 4.495 4.476l.013 3.181a3.499 3.499 0 0 0-.799.29 1.632 1.632 0 0 1-.658.178l-.01-2.414a2.81 2.81 0 0 0-2.81-2.8H42.705c-.42.003-.836.07-1.236.2-1.07.35-2.3.35-3.36.015a4.161 4.161 0 0 0-1.238-.19h-.024a2.814 2.814 0 0 0-2.8 2.824l.01 2.172a6.5 6.5 0 0 0-1.46-.277l-.018-4.031a1.489 1.489 0 0 1 1.484-1.496zm-.388 10.072a.82.82 0 0 0-.82-.8h-.004l-.477.002h-.002a.44.44 0 0 1-.442-.44l-.006-1.398c0-.126.049-.226.115-.298.757.02 1.648.177 1.882.405a1.047 1.047 0 0 0 1.78-.752l-.013-3.166a1.172 1.172 0 0 1 1.166-1.176c.09.007.356-.015.759.113a7.25 7.25 0 0 0 4.364-.019c.394-.128.747-.117.758-.118h.005a1.17 1.17 0 0 1 1.17 1.165l.012 2.726a1.317 1.317 0 0 0 1.166 1.302 3.283 3.283 0 0 0 1.883-.34c.224-.115.463-.167.631-.19a.43.43 0 0 1 .105.281l.006 1.399a.443.443 0 0 1-.44.444l-.478.002a.82.82 0 0 0-.816.806c-.029 1.645-.72 3.174-1.898 4.197a7.27 7.27 0 0 1-.73.558c-2.402 1.475-4.754 1.404-7.005.032-.253-.166-.5-.35-.739-.555-1.186-1.012-1.89-2.536-1.932-4.18zm3.128 24.181H30.63l-.014-3.244a.82.82 0 0 0-.82-.817h-.003a.82.82 0 0 0-.817.824l.014 3.237h-1.429a1.85 1.85 0 0 1-1.847-1.839l-.026-6.243a4.657 4.657 0 0 1 2.742-4.262c.946-.426 2.412-.776 3.78-1.037-.006.575.24 1.126.697 1.515l2.833 2.411a1.976 1.976 0 0 0 1.513.459l.645 1.51-1.096 7.486zm.421-10.688a.339.339 0 0 1-.42-.016l-2.832-2.411a.325.325 0 0 1-.107-.352.326.326 0 0 1 .273-.242c.232-.035.447-.066.637-.093l3.635 2.253-1.186.86zm1.237 10.688l.992-6.779.887-.003 1.058 6.782H38.46zm15.115-.583c-.351.374-.809.581-1.287.583h-1.422l-.014-3.33a.82.82 0 0 0-.82-.816h-.004a.82.82 0 0 0-.817.824l.014 3.322h-6.168l-1.17-7.502.638-1.516a1.976 1.976 0 0 0 1.51-.471l2.813-2.435c.454-.394.695-.946.685-1.522 1.37.25 2.839.588 3.788 1.006a4.657 4.657 0 0 1 2.778 4.238l.027 6.244c.002.5-.199 1.001-.55 1.375z"/></g><defs><clipPath id="a"><path fill="#fff" d="M0 0h56v56H0z"/></clipPath></defs></svg>