<svg width="56" height="56" viewBox="0 0 56 56" fill="none" xmlns="http://www.w3.org/2000/svg"><g clip-path="url(#a)" fill="#fff"><path d="M28.201 0a8.04 8.04 0 0 0-8.039 8.04 8.04 8.04 0 1 0 16.08 0A8.049 8.049 0 0 0 28.201 0zm0 14.454a6.414 6.414 0 1 1 6.415-6.414 6.422 6.422 0 0 1-6.415 6.414z"/><path d="M30.414 5.828a.813.813 0 0 0-1.15 0L28.2 6.89 27.14 5.828a.813.813 0 1 0-1.15 1.15l1.063 1.062-1.062 1.062a.813.813 0 0 0 1.15 1.15L28.2 9.19l1.063 1.062a.813.813 0 0 0 1.15-1.15L29.35 8.04l1.063-1.063a.812.812 0 0 0 0-1.149zM8.88 0a8.04 8.04 0 1 0 8.04 8.04A8.049 8.049 0 0 0 8.88 0zm0 14.454a6.414 6.414 0 1 1 6.414-6.414 6.422 6.422 0 0 1-6.414 6.414z"/><path d="M11.041 5.815l-2.95 2.702-1.323-1.435a.813.813 0 0 0-1.195 1.102l1.873 2.031c.304.33.816.35 1.147.049l3.546-3.25a.813.813 0 1 0-1.098-1.199zM47.103 0a8.04 8.04 0 1 0 8.04 8.04A8.049 8.049 0 0 0 47.103 0zm0 14.454a6.414 6.414 0 1 1 6.414-6.414 6.422 6.422 0 0 1-6.414 6.414z"/><path d="M49.264 5.815l-2.95 2.702-1.323-1.435a.813.813 0 0 0-1.196 1.102l1.874 2.031c.303.33.816.35 1.146.049l3.547-3.25a.813.813 0 0 0-1.098-1.199zM46.923 27.304h.167a3.488 3.488 0 0 0 3.484-3.484v-1.268a3.488 3.488 0 0 0-3.484-3.484h-.167a3.488 3.488 0 0 0-3.484 3.484v1.268a3.488 3.488 0 0 0 3.484 3.484zm-1.858-4.752a1.86 1.86 0 0 1 1.858-1.858h.167a1.86 1.86 0 0 1 1.858 1.858v1.268a1.86 1.86 0 0 1-1.858 1.858h-.167a1.86 1.86 0 0 1-1.858-1.858v-1.268zM50.328 28.102h-.696a.813.813 0 0 0-.685.377l-.689 1.082-.8-.448a.813.813 0 0 0-.812.01l-.682.405-.6-1.023a.813.813 0 0 0-.7-.402h-.785a3.675 3.675 0 0 0-3.66 4v7.317c0 .173.054.34.157.48l2.147 2.93.482 10.799a2.45 2.45 0 0 0 2.458 2.37h3.294a2.45 2.45 0 0 0 2.459-2.363l.482-10.808 2.134-2.931a.812.812 0 0 0 .155-.479v-7.314a3.674 3.674 0 0 0-3.66-4.002zm2.038 3.881a.83.83 0 0 0-.004.082v7.088l-2.122 2.915a.814.814 0 0 0-.155.442l-.494 11.06a.83.83 0 0 1-.834.805h-3.294a.832.832 0 0 1-.833-.811l-.494-11.053a.813.813 0 0 0-.157-.444l-2.135-2.913v-7.089a.836.836 0 0 0-.004-.082 2.048 2.048 0 0 1 2.038-2.255h.319l.776 1.328a.814.814 0 0 0 .702.401h.004a.815.815 0 0 0 .419-.118l.974-.579 1.062.594c.376.21.85.09 1.082-.273l.862-1.353h.25a2.048 2.048 0 0 1 2.038 2.255zM28.022 27.304h.167a3.488 3.488 0 0 0 3.484-3.484v-1.268a3.488 3.488 0 0 0-3.484-3.484h-.167a3.487 3.487 0 0 0-3.483 3.484v1.268a3.487 3.487 0 0 0 3.483 3.484zm-1.858-4.752a1.86 1.86 0 0 1 1.858-1.858h.167a1.86 1.86 0 0 1 1.858 1.858v1.268a1.86 1.86 0 0 1-1.858 1.858h-.167a1.86 1.86 0 0 1-1.858-1.858v-1.268zM31.427 28.102h-.696a.813.813 0 0 0-.685.377l-.69 1.082-.8-.448a.813.813 0 0 0-.811.01l-.683.405-.598-1.023a.814.814 0 0 0-.702-.402h-.784a3.675 3.675 0 0 0-3.66 4v7.317c0 .173.055.34.157.48l2.147 2.93.482 10.799a2.452 2.452 0 0 0 2.459 2.37h3.294a2.45 2.45 0 0 0 2.457-2.363l.483-10.809 2.134-2.93a.814.814 0 0 0 .155-.479v-7.314a3.674 3.674 0 0 0-3.659-4.002zm2.038 3.882a.722.722 0 0 0-.005.082v7.087L31.34 42.07a.81.81 0 0 0-.155.441l-.494 11.06a.831.831 0 0 1-.834.805h-3.294a.833.833 0 0 1-.834-.811l-.493-11.053a.814.814 0 0 0-.157-.444l-2.135-2.913v-7.089a.697.697 0 0 0-.005-.081 2.05 2.05 0 0 1 2.04-2.256h.318l.776 1.328a.812.812 0 0 0 1.123.284l.976-.58 1.062.594c.375.21.85.09 1.082-.273l.862-1.353h.25a2.049 2.049 0 0 1 2.038 2.255zM8.7 27.304h.167a3.488 3.488 0 0 0 3.484-3.484v-1.268a3.488 3.488 0 0 0-3.484-3.484H8.7a3.488 3.488 0 0 0-3.483 3.484v1.268A3.488 3.488 0 0 0 8.7 27.304zm-1.858-4.752A1.86 1.86 0 0 1 8.7 20.694h.167a1.86 1.86 0 0 1 1.858 1.858v1.268a1.86 1.86 0 0 1-1.858 1.858H8.7a1.86 1.86 0 0 1-1.858-1.858v-1.268zM12.106 28.102h-.696a.813.813 0 0 0-.685.377l-.69 1.082-.8-.448a.812.812 0 0 0-.811.01l-.682.405-.6-1.023a.812.812 0 0 0-.701-.402h-.785a3.675 3.675 0 0 0-3.66 4v7.317c0 .173.055.34.157.48L4.3 42.83l.482 10.799a2.452 2.452 0 0 0 2.459 2.37h3.294a2.45 2.45 0 0 0 2.458-2.363l.483-10.809 2.133-2.93a.812.812 0 0 0 .156-.479v-7.314a3.674 3.674 0 0 0-3.66-4.002zm2.038 3.882a.7.7 0 0 0-.005.082v7.087l-2.122 2.916a.813.813 0 0 0-.154.441l-.494 11.06a.832.832 0 0 1-.834.804H7.241a.833.833 0 0 1-.834-.81L5.913 42.51a.817.817 0 0 0-.156-.444L3.62 39.153v-7.088a.82.82 0 0 0-.004-.081 2.049 2.049 0 0 1 2.04-2.256h.317l.777 1.328a.814.814 0 0 0 .702.401h.004a.813.813 0 0 0 .418-.118l.974-.579 1.062.594c.376.21.85.09 1.082-.273l.862-1.353h.25a2.05 2.05 0 0 1 2.039 2.256z"/></g><defs><clipPath id="a"><path fill="#fff" d="M0 0h56v56H0z"/></clipPath></defs></svg>