<svg width="58" height="58" viewBox="0 0 58 58" fill="none" xmlns="http://www.w3.org/2000/svg"><g clip-path="url(#a)" fill="#fff"><path d="M51.64 4.998h-8.813a.851.851 0 1 0 0 1.702h8.814a4.662 4.662 0 0 1 4.656 4.657v26.6h-9.801a.851.851 0 1 0 0 1.703h9.722a4.663 4.663 0 0 1-4.577 3.805H29.399a.851.851 0 1 0 0 1.703h4.872v3.355c0 .204.074.401.207.556l2.003 2.32H21.633l2.003-2.32a.851.851 0 0 0 .206-.556v-3.355h1.929a.851.851 0 1 0 0-1.703H6.36a4.663 4.663 0 0 1-4.578-3.805h41.085a.851.851 0 1 0 0-1.703H1.703v-26.6A4.662 4.662 0 0 1 6.36 6.7h8.926a.851.851 0 1 0 0-1.702H6.36A6.367 6.367 0 0 0 0 11.358v27.45a6.367 6.367 0 0 0 6.36 6.36h15.78v3.038l-2.757 3.193H18.25a2.466 2.466 0 0 0-2.464 2.463v.863a2.466 2.466 0 0 0 2.464 2.464H39.75a2.466 2.466 0 0 0 2.464-2.464v-.863A2.466 2.466 0 0 0 39.75 51.4h-1.02l-2.757-3.193v-3.038H51.64A6.367 6.367 0 0 0 58 38.808v-27.45a6.367 6.367 0 0 0-6.36-6.36zM40.513 53.862v.863c0 .42-.341.761-.76.761H18.248a.761.761 0 0 1-.761-.76v-.864c0-.42.341-.76.76-.76h21.503c.42 0 .761.34.761.76z"/><path d="M16.144 14.268a.851.851 0 0 0 .922-.774 11.999 11.999 0 0 1 4.642-8.478l6.64 10.006c.157.237.423.38.709.38h12.007c-.314 4.48-3.09 8.29-6.98 10.085l-4.88-4.615c.231-.439.363-.938.363-1.468a3.159 3.159 0 0 0-3.155-3.155A3.159 3.159 0 0 0 23.5 20.62l-.763.603a.851.851 0 1 0 1.057 1.335l.763-.604c.521.38 1.162.604 1.854.604.592 0 1.147-.165 1.622-.45l4.267 4.035c-1.032.29-2.12.445-3.244.445-5.74 0-10.707-4.081-11.812-9.705a.851.851 0 1 0-1.67.328 13.661 13.661 0 0 0 3.572 6.852l-6.365 5.033a3.138 3.138 0 0 0-1.854-.604 3.159 3.159 0 0 0-3.155 3.155 3.159 3.159 0 0 0 3.155 3.156 3.159 3.159 0 0 0 2.911-4.372l6.58-5.203a13.725 13.725 0 0 0 13.294 2.25l2.857 2.702a3.134 3.134 0 0 0-.363 1.467 3.159 3.159 0 0 0 3.155 3.156 3.159 3.159 0 0 0 3.155-3.156c0-.523-.129-1.016-.355-1.45l6.203-5.795c.477.292 1.038.46 1.638.46a3.159 3.159 0 0 0 3.155-3.155 3.159 3.159 0 0 0-3.155-3.155 3.159 3.159 0 0 0-3.155 3.155c0 .523.128 1.016.355 1.45L41 28.954a3.136 3.136 0 0 0-1.638-.46c-.593 0-1.148.165-1.622.45l-2.336-2.208c4.39-2.297 7.393-6.896 7.393-12.184 0-7.577-6.163-13.74-13.74-13.74-3.46 0-6.766 1.29-9.309 3.633a13.697 13.697 0 0 0-4.379 8.902.851.851 0 0 0 .775.922zm8.815 5.136c0-.8.652-1.452 1.453-1.452.8 0 1.452.651 1.452 1.452 0 .8-.651 1.452-1.452 1.452-.801 0-1.453-.651-1.453-1.452zM10.93 33.101c-.801 0-1.453-.651-1.453-1.452 0-.801.652-1.453 1.452-1.453.801 0 1.453.652 1.453 1.453 0 .8-.652 1.452-1.453 1.452zm39.074-12.845c.8 0 1.452.651 1.452 1.452 0 .8-.651 1.452-1.452 1.452-.801 0-1.453-.651-1.453-1.452 0-.801.652-1.452 1.453-1.452zm-9.587 10.397l.005.006.003.003c.242.26.39.605.39.987 0 .8-.651 1.452-1.452 1.452-.801 0-1.453-.651-1.453-1.452 0-.386.152-.735.398-.996h.001c0-.002.001-.002.002-.003a1.447 1.447 0 0 1 2.106.003zm.648-16.953h-11.55l-6.388-9.626a12.006 12.006 0 0 1 5.93-1.561c6.352 0 11.57 4.945 12.008 11.187z"/></g><defs><clipPath id="a"><path fill="#fff" d="M0 0h58v58H0z"/></clipPath></defs></svg>