<svg width="60" height="34" viewBox="0 0 60 34" fill="none" xmlns="http://www.w3.org/2000/svg"><path d="M2.854 10.284h47.28v20.869c0 .622-.249 1.219-.69 1.659-.442.44-1.04.688-1.665.688H2.854a2.358 2.358 0 0 1-1.665-.688 2.344 2.344 0 0 1-.689-1.66v-18.52c0-.623.248-1.22.69-1.66a2.358 2.358 0 0 1 1.664-.688z" stroke="#fff"/><path fill-rule="evenodd" clip-rule="evenodd" d="M56.497 7.096c.952-1.267 1.41-3.453.669-7.096-9.348 1.457-7.343 6.525-6.45 8.11 1.377-2.142 3-4.113 4.837-5.873a35.808 35.808 0 0 0-3.217 5.723c1.26-1.457 2.738-1.534 4.161-.864zm2.942 2.973c-4.096 4.634-6.294 2.07-7.11.678a10.863 10.863 0 0 1 3.95-.547 12.118 12.118 0 0 0-4.18-.528c.498-1.198 2.546-4.736 7.34.397zM28.864 15.165h1.242v1.23h-1.242v-1.23zM11.09 22.864l3.082-7.697h2.05l-4.737 11.05c-.696 1.62-1.607 2.337-3.295 2.402a6.937 6.937 0 0 1-2.563-.45v-1.547c1.6.464 1.809.518 2.38.508.78 0 1.439-.414 2.197-2.146l-4.566-9.818h1.98l3.472 7.698zm13.44 5.755h-1.71v-3.577a9.076 9.076 0 0 1-2.302.294c-2.399 0-3.823-1.225-3.845-3.646V18.76h1.703v2.997c0 1.471.732 2.113 2.142 2.113a9.076 9.076 0 0 0 2.303-.294V18.76h1.71v9.857zm6.81 0c-3.192 0-4.737-2.073-4.737-4.961 0-2.537 1.65-4.89 4.518-4.89 3.573 0 4.25 2.585 4.25 5.393h-7.194a3.04 3.04 0 0 0 .946 2.219 3.103 3.103 0 0 0 2.272.858 3.414 3.414 0 0 0 1.53-.29 3.38 3.38 0 0 0 1.235-.938l1.098.772c-.879 1.225-2.184 1.837-3.917 1.837zm-.22-8.52c-1.665 0-2.694 1.294-2.884 2.732h5.561c0-1.475-1.007-2.732-2.676-2.732zm13.888.033h-3.339v8.487h-1.702v-8.487H36.67v-1.37h8.319v1.362l.018.008zm-13.126-4.955h1.242v1.229H31.88v-1.229z" fill="#fff"/></svg>