<svg width="58" height="58" viewBox="0 0 58 58" fill="none" xmlns="http://www.w3.org/2000/svg"><path d="M4.531 45.313h.907v6.343a.906.906 0 0 0 .906.907h9.062a.906.906 0 0 0 .906-.907v-6.343a.906.906 0 0 0 .907-.927l-.134-6.1 6.246 1.362a2.222 2.222 0 0 0 1.36 1.989l2.334.982a2.226 2.226 0 0 0 2.939-1.252c.012-.033.021-.066.032-.099a.907.907 0 0 0 .196-.03l12.664-3.507-1.155 6.517a.907.907 0 0 0 .893 1.065h.106l.807 6.456a.906.906 0 0 0 .9.794h8.156a.906.906 0 0 0 .899-.794l.807-6.456h.106a.906.906 0 0 0 .874-1.146c-.006-.023-.65-2.422-.876-6.159-.15-2.51-.078-5.795-.024-8.195.022-.969.04-1.806.043-2.456a5.641 5.641 0 0 0-2.024-4.33 2.716 2.716 0 0 0 1.1-2.183v-6.976a4.806 4.806 0 0 0-4.805-4.806h-5.319a2.719 2.719 0 0 0-1.922 4.642l.266.265v4.156a3.632 3.632 0 0 0 2.718 3.51v1.811a6.616 6.616 0 0 0-1.476 1.949l-2.96 5.918c-.01.02-.017.04-.026.06l-6.443 1.792-2.504-.52a.945.945 0 0 0-.111-.016l-.01-.002-3.171-.226a.905.905 0 0 0-.37.05l-2.913 1.04-6.559-1.64-2.583-5.681a7.512 7.512 0 0 0-1.686-2.357v-2.178a3.631 3.631 0 0 0 2.719-3.51v-4.394a9.565 9.565 0 0 0-.047-5.861.905.905 0 0 0-1.362-.468 9.855 9.855 0 0 1-5.484 1.66h-.084a4.795 4.795 0 0 0-3.998 2.14l-.003.005a4.79 4.79 0 0 0-.804 2.661v2.444a4.54 4.54 0 0 0 3.625 4.441v1.005a4.741 4.741 0 0 0-2.379.792 4.824 4.824 0 0 0-2.152 4.021v17.835a.906.906 0 0 0 .906.907zm47.232 5.437h-6.557l-.68-5.438h7.916l-.68 5.438zm-9.06-38.328a.907.907 0 0 1 .641-1.547h5.32a2.993 2.993 0 0 1 2.992 2.993v6.976a.906.906 0 1 1-1.812 0v-5.438a.907.907 0 0 0-.266-.64l-1.812-1.813a.905.905 0 0 0-.641-.265h-4.156l-.265-.266zm.797 5.703V14.5h3.25l1.281 1.282v6.016a6.581 6.581 0 0 0-1.812.485v-1.44a.906.906 0 0 0-.907-.905 1.815 1.815 0 0 1-1.812-1.813zm1.051 8.08a4.79 4.79 0 0 1 1.263-1.577 4.76 4.76 0 0 1 3.013-1.065 3.709 3.709 0 0 1 2.642 1.093 3.817 3.817 0 0 1 1.11 2.694c-.002.634-.02 1.463-.042 2.423-.054 2.43-.129 5.76.027 8.344.102 1.808.328 3.606.676 5.383h-9.565l1.378-7.778 2.859-5.004a.907.907 0 0 0-.395-1.266l-3.7-1.777.734-1.47zM29.629 35.41l1.37-.913 2.348.489a.91.91 0 0 0 .428-.014l7.25-2.017a.906.906 0 0 0 .582-.498l1.43-3.145 2.819 1.353-2.957 5.174-9.717 2.691-.611-1.683a.906.906 0 0 0-1.139-.55l-1.177.393a.718.718 0 0 1-.626-1.28zm-4.254-.333l2.391-.854.437.031a2.53 2.53 0 0 0 2.625 4.155l.34-.113.262.72-1.616.447a2.212 2.212 0 0 0-1.02-.924l-2.315-1.033a2.228 2.228 0 0 0-1.104-.183v-2.246zm-.208 4.371l.019-.05a.408.408 0 0 1 .388-.273.41.41 0 0 1 .166.036l2.316 1.033a.411.411 0 0 1-.328.755l-2.333-.982a.412.412 0 0 1-.228-.519zM14.5 50.75H7.25v-5.438h7.25v5.438zm0-32.625a1.815 1.815 0 0 1-1.813 1.813.906.906 0 0 0-.906.906v1.702a7.54 7.54 0 0 0-1.812-.633v-6.132L11.25 14.5h3.25v3.625zm-8.156-1.813v-2.444c0-.59.174-1.168.502-1.66l.003-.003a2.986 2.986 0 0 1 2.487-1.33h.084a11.658 11.658 0 0 0 5.405-1.323 7.768 7.768 0 0 1-.1 3.136h-3.85a.907.907 0 0 0-.64.265l-1.813 1.812a.905.905 0 0 0-.266.641v3.47a2.723 2.723 0 0 1-1.812-2.564zM5.437 26.57a3.014 3.014 0 0 1 1.345-2.513 2.935 2.935 0 0 1 1.634-.494 5.738 5.738 0 0 1 5.214 3.357L16.394 33a.906.906 0 0 0 .605.504l6.564 1.641v2.699l-7.198-1.57-3.02-.789-2.543-5.936a.906.906 0 1 0-1.666.714l2.719 6.344a.907.907 0 0 0 .603.52l2.804.733.124 5.64H5.438V26.57z" fill="#fff"/><path d="M12.688 17.219a.906.906 0 1 0 0-1.813.906.906 0 0 0 0 1.813zM45.313 17.219a.906.906 0 1 0 0-1.813.906.906 0 0 0 0 1.813zM8.157 41.687a.902.902 0 0 0 .502-.153l2.719-1.812a.906.906 0 1 0-1.006-1.508l-2.718 1.812a.906.906 0 0 0 .503 1.66zM29 30.813a9.063 9.063 0 1 0-9.063-9.063A9.04 9.04 0 0 0 29 30.813zm7.02-10.875a7.236 7.236 0 0 1-.002 3.625h-2.57a19.44 19.44 0 0 0 0-3.625h2.573zm-.745-1.813H33.18a11.638 11.638 0 0 0-.958-2.867 7.299 7.299 0 0 1 3.053 2.867zm-2.095 7.25h2.096a7.258 7.258 0 0 1-3.057 2.873c.444-.912.767-1.877.961-2.873zm-10.455 0h2.095c.193.993.515 1.957.958 2.867a7.3 7.3 0 0 1-3.053-2.867zM29 29c-.563 0-1.228-.71-1.735-1.85a10.168 10.168 0 0 1-.585-1.775h4.636C30.765 27.658 29.764 29 29 29zm0-14.5c.563 0 1.228.71 1.735 1.85.25.573.445 1.167.585 1.775h-4.636c.55-2.283 1.552-3.625 2.316-3.625zm-2.623 5.438h5.248a17.28 17.28 0 0 1-.002 3.625h-5.248a17.307 17.307 0 0 1 .002-3.625zm-.6-4.68c-.442.91-.764 1.874-.957 2.867h-2.095a7.299 7.299 0 0 1 3.053-2.867zM21.75 21.75c0-.611.077-1.22.23-1.813h2.572a19.44 19.44 0 0 0 0 3.625H21.98a7.239 7.239 0 0 1-.229-1.812z" fill="#fff"/></svg>