<svg width="57" height="57" viewBox="0 0 57 57" fill="none" xmlns="http://www.w3.org/2000/svg"><path d="M25.828 14.25a.89.89 0 1 1-1.782 0 .89.89 0 0 1 1.782 0zm6.235-.89a.89.89 0 1 0 0 1.781.89.89 0 0 0 0-1.782zm-2.672 7.124h-3.563v1.782h3.563a3.566 3.566 0 0 0 3.562-3.563h-1.781c0 .983-.799 1.781-1.781 1.781zm0-7.125h-1.782v3.563h1.782v-3.563zM.89 52.547V36.516c0-.983.799-1.782 1.78-1.782h7.315a21.258 21.258 0 0 1-2.861-10.687c0-8.718 5.42-16.666 13.508-19.872A7.915 7.915 0 0 1 27.062.891h3.211c3.298 0 6.214 1.641 7.993 4.145C45.43 8.72 49.875 15.98 49.875 24.046c0 10.33-7.366 18.971-17.12 20.95.13.422.198.865.198 1.316v.891h8.906V41.86h7.125v1.782h-5.343v8.906h8.906v-5.344h1.781v7.125H41.86v-5.344h-8.906v4.453a2.675 2.675 0 0 1-2.672 2.672H26.72a2.675 2.675 0 0 1-2.672-2.672v-4.453h-7.125v3.563c0 .982-.799 1.781-1.781 1.781H2.67a1.783 1.783 0 0 1-1.78-1.781zM20.484 15.14c-.982 0-1.78.799-1.78 1.78 0 .983.798 1.782 1.78 1.782v-3.562zm-8.015 8.906c0 3.66 1.246 7.026 3.318 9.727a10.842 10.842 0 0 1 8.432-6.962l.343-1.377a6.242 6.242 0 0 1-4.006-4.951h-.072a3.566 3.566 0 0 1-3.562-3.563c0-.756.24-1.455.645-2.033l-.429-2.144a15.968 15.968 0 0 0-4.67 11.303zm24.047-5.344c.982 0 1.78-.799 1.78-1.781 0-.982-.798-1.781-1.78-1.781v3.562zm-4.078 6.733l.343 1.377a10.843 10.843 0 0 1 8.432 6.962c2.072-2.702 3.318-6.069 3.318-9.728 0-4.277-1.687-8.308-4.668-11.301l-.429 2.143c.404.578.644 1.277.644 2.033a3.566 3.566 0 0 1-3.562 3.562h-.072a6.245 6.245 0 0 1-4.007 4.952zm-6.133.372l-.362 1.449 2.514 1.912 2.596-1.92-.36-1.44c-.136.008-.273.02-.412.02H26.72c-.14 0-.276-.012-.414-.021zm5.994 2.734l-2.03 1.502 2.02.798.447-2.235c-.144-.028-.29-.045-.437-.065zm-3.124 2.983l-.72-.284-.726.293.473 1.42h.497l.476-1.428zm-4.482-2.982c-.143.02-.287.036-.429.063l.445 2.227 1.956-.791-1.971-1.5zm-7.524 6.834a16.023 16.023 0 0 0 8.042 4.36l1.422-5.854-.56-1.679-2.69 1.088-.834-4.173c-2.657 1.082-4.703 3.4-5.38 6.258zm9.81 4.624c.502.048 1.008.077 1.521.077.508 0 1.008-.03 1.503-.077l-1.352-5.267h-.392l-1.28 5.267zm12.852-4.624c-.677-2.858-2.723-5.176-5.38-6.259l-.834 4.165-2.783-1.101-.564 1.695 1.507 5.863a16.02 16.02 0 0 0 8.053-4.363zM34.733 12.47c0-.491-.4-.89-.89-.89H29.39c-1.58 0-3-.69-3.98-1.782h-.474a2.675 2.675 0 0 0-2.671 2.672v7.125a4.458 4.458 0 0 0 4.453 4.453h3.562a4.458 4.458 0 0 0 4.453-4.453v-7.125zM24.047 47.203v-.89c0-.456.07-.902.203-1.328a21.072 21.072 0 0 1-7.328-2.966v5.184h7.125zm7.125 1.781h-5.344v4.453c0 .491.4.891.89.891h3.563c.491 0 .89-.4.89-.89v-4.454zm-.215-3.707c-.807.092-1.626.145-2.457.145-.827 0-1.644-.063-2.454-.155-.14.328-.218.682-.218 1.045v.891h5.344v-.89c0-.361-.078-.71-.215-1.036zM39.68 7.949c.239.816.373 1.674.39 2.562a17.745 17.745 0 0 1 6.243 13.536c0 9.822-7.99 17.812-17.812 17.812-4.42 0-8.46-1.628-11.578-4.303v2.284a19.395 19.395 0 0 0 11.578 3.8c10.804 0 19.594-8.789 19.594-19.593 0-6.519-3.165-12.466-8.415-16.098zM21.312 6.566l-.104.256-.4.267a4.715 4.715 0 0 0-2.013 4.86l.336 1.681c.418-.173.874-.27 1.353-.27v-.891a4.46 4.46 0 0 1 3.88-4.417 5.325 5.325 0 0 1-.317-1.818h1.781a3.566 3.566 0 0 0 3.563 3.563h4.453a2.675 2.675 0 0 1 2.672 2.672v.89c.479 0 .935.098 1.353.271l.273-1.36a8.108 8.108 0 0 0 .155-1.575c0-4.423-3.6-8.023-8.024-8.023h-3.211a6.163 6.163 0 0 0-5.75 3.894zm-9.223 28.168h2.196c-2.248-2.98-3.598-6.675-3.598-10.687 0-5.246 2.283-10.16 6.268-13.555a6.473 6.473 0 0 1 .97-2.923c-5.511 3.56-9.019 9.768-9.019 16.478 0 3.824 1.106 7.506 3.183 10.687zM2.672 52.547h12.47l-.001-16.031H2.67v16.03zm3.562-14.25h-1.78v1.781h1.78v-1.781zm1.782 1.781h5.343v-1.781H8.016v1.781zm-3.563 3.563h8.906v-1.782H4.453v1.782zm0 3.562h8.906v-1.781H4.453v1.781zm41.599-.63l-1.26 1.26 3.376 3.375 7.746-9.683-1.39-1.113-6.504 8.129-1.969-1.967zM4.453 50.767h8.906v-1.782H4.453v1.782z" fill="#fff"/></svg>