<svg width="37" height="53" viewBox="0 0 37 53" fill="none" xmlns="http://www.w3.org/2000/svg"><path d="M1.142 0C.518 0 0 .533 0 1.177v46.998c0 .235.06.455.198.658.076.126.183.22.29.314l4.339 3.138c.396.282.913.282 1.31 0l3.684-2.667 3.685 2.666c.396.283.913.283 1.31 0l3.684-2.666 3.685 2.666c.198.142.426.22.655.22.228 0 .456-.078.654-.22l3.685-2.666 3.685 2.666c.396.283.913.283 1.31 0l4.339-3.137c.152-.11.259-.235.35-.392.091-.173.137-.36.137-.565V1.177C37 .533 36.482 0 35.858 0H1.142zm33.574 47.563l-3.198 2.306-3.684-2.667a1.134 1.134 0 0 0-.655-.22c-.228 0-.457.079-.655.22l-3.684 2.667-3.685-2.667a1.118 1.118 0 0 0-1.31 0l-3.684 2.667-3.685-2.667a1.118 1.118 0 0 0-1.31 0l-3.685 2.667-3.197-2.306V2.353h32.432v45.21z" fill="#fff"/><path d="M7.994 11.906H9.44l2.954 7.86a1.14 1.14 0 0 0 1.066.753h10.08a1.14 1.14 0 0 0 1.066-.753l2.954-7.86h1.446c.625 0 1.142-.533 1.142-1.176 0-.643-.517-1.177-1.142-1.177h-3.76l-1.082-3.45c-.198-.613-.837-.958-1.431-.754a1.18 1.18 0 0 0-.73 1.475l.852 2.73h-8.68l.853-2.73c.198-.612-.137-1.286-.73-1.475-.594-.204-1.249.141-1.432.753l-1.08 3.451H7.993c-.624 0-1.142.534-1.142 1.177s.518 1.176 1.142 1.176zm14.77 6.26h-8.527l-2.36-6.26h13.216l-2.33 6.26zM23.235 24.016H8.71c-.624 0-1.142.534-1.142 1.177s.518 1.176 1.142 1.176h14.526c.625 0 1.142-.533 1.142-1.176 0-.643-.517-1.177-1.142-1.177zM26.479 25.193c0 .643.517 1.176 1.142 1.176h2.877c.625 0 1.142-.533 1.142-1.176 0-.643-.517-1.177-1.142-1.177h-2.877c-.625 0-1.142.534-1.142 1.177zM23.235 30.448H8.71c-.624 0-1.142.533-1.142 1.177 0 .643.518 1.176 1.142 1.176h14.526c.625 0 1.142-.533 1.142-1.177 0-.643-.517-1.176-1.142-1.176zM30.498 30.448h-2.877c-.625 0-1.142.533-1.142 1.177 0 .643.517 1.176 1.142 1.176h2.877c.625 0 1.142-.533 1.142-1.177 0-.643-.517-1.176-1.142-1.176zM23.235 36.864H8.71c-.624 0-1.142.534-1.142 1.177s.518 1.176 1.142 1.176h14.526c.625 0 1.142-.533 1.142-1.176 0-.643-.517-1.177-1.142-1.177zM30.498 36.864h-2.877c-.625 0-1.142.534-1.142 1.177s.517 1.176 1.142 1.176h2.877c.625 0 1.142-.533 1.142-1.176 0-.643-.517-1.177-1.142-1.177z" fill="#fff"/></svg>