<svg width="58" height="58" viewBox="0 0 58 58" fill="none" xmlns="http://www.w3.org/2000/svg"><path d="M46.86 3.89a.907.907 0 0 0-.641-.265H22.656a4.536 4.536 0 0 0-4.531 4.531v.906H6.344a4.536 4.536 0 0 0-4.532 4.532v38.062a4.536 4.536 0 0 0 4.532 4.532h29a4.536 4.536 0 0 0 4.517-4.186l1.043-1.252h10.752a4.536 4.536 0 0 0 4.532-4.531V13.594a.906.906 0 0 0-.266-.641L46.86 3.89zm.265 2.829l5.968 5.968h-3.25a2.722 2.722 0 0 1-2.718-2.718v-3.25zM35.344 54.375h-29a2.722 2.722 0 0 1-2.719-2.719V13.594a2.722 2.722 0 0 1 2.719-2.719H29v4.531a4.536 4.536 0 0 0 4.531 4.531h4.532V29h-2.72a.907.907 0 0 0-.906.906v9.969h-4.53a.906.906 0 0 0-.697 1.486l8.835 10.602a2.722 2.722 0 0 1-2.701 2.412zm-4.532-38.969v-3.25l5.969 5.969h-3.25a2.722 2.722 0 0 1-2.718-2.719zM38.97 50.24l-7.128-8.553h3.503a.907.907 0 0 0 .906-.906v-9.968h5.438v9.968a.907.907 0 0 0 .906.907h3.502L38.97 50.24zm15.406-4.021a2.722 2.722 0 0 1-2.719 2.718h-9.242l6.313-7.576a.907.907 0 0 0-.696-1.486H43.5v-9.969a.907.907 0 0 0-.906-.906h-2.719v-9.969a.905.905 0 0 0-.265-.64l-9.063-9.063a.907.907 0 0 0-.64-.265h-9.97v-.907a2.722 2.722 0 0 1 2.72-2.719h22.655V9.97a4.536 4.536 0 0 0 4.532 4.531h4.531v31.719z" fill="#fff"/><path d="M44.406 18.125a.907.907 0 0 0 0 1.813h5.438a.907.907 0 0 0 0-1.813h-5.438zM49.844 29H48.03a.907.907 0 0 0 0 1.813h1.813a.907.907 0 0 0 0-1.813zM49.844 34.438H48.03a.907.907 0 0 0 0 1.812h1.813a.907.907 0 0 0 0-1.813zM49.844 23.563h-5.438a.907.907 0 0 0 0 1.812h5.438a.907.907 0 0 0 0-1.813zM16.313 24.469a.907.907 0 0 0 .906.906H33.53a.907.907 0 0 0 0-1.813H17.22a.907.907 0 0 0-.907.907zM8.156 30.813h14.5a.907.907 0 0 0 0-1.813h-14.5a.906.906 0 0 0 0 1.813zM29.906 34.438h-7.25a.907.907 0 0 0 0 1.812h7.25a.907.907 0 0 0 0-1.813zM8.156 41.688H24.47a.907.907 0 0 0 0-1.813H8.156a.906.906 0 0 0 0 1.813zM8.156 25.375h5.438a.907.907 0 0 0 0-1.813H8.156a.906.906 0 0 0 0 1.813zM29.906 29h-3.625a.907.907 0 0 0 0 1.813h3.625a.907.907 0 0 0 0-1.813zM8.156 36.25h10.875a.907.907 0 0 0 0-1.813H8.156a.906.906 0 0 0 0 1.813zM13.594 45.313H8.156a.906.906 0 0 0 0 1.812h5.438a.907.907 0 0 0 0-1.813zM8.156 19.938h10.875a.907.907 0 0 0 0-1.813H8.156a.906.906 0 0 0 0 1.813zM28.094 45.313H17.219a.907.907 0 0 0 0 1.812h10.875a.907.907 0 0 0 0-1.813zM42.594 12.688H40.78a.907.907 0 0 0 0 1.812h1.813a.907.907 0 0 0 0-1.813z" fill="#fff"/></svg>