<svg width="56" height="56" viewBox="0 0 56 56" fill="none" xmlns="http://www.w3.org/2000/svg"><path d="M21 14.875a.875.875 0 0 0-.875-.875h-7a.875.875 0 1 0 0 1.75h7a.875.875 0 0 0 .875-.875zM14.875 19.25h-7a.875.875 0 0 0 0 1.75h7a.875.875 0 1 0 0-1.75zM7.875 15.75h1.75a.875.875 0 0 0 0-1.75h-1.75a.875.875 0 0 0 0 1.75zM21 20.125a.875.875 0 0 0-.875-.875h-1.75a.875.875 0 1 0 0 1.75h1.75a.875.875 0 0 0 .875-.875zM11.375 24.5h-3.5a.875.875 0 0 0 0 1.75h3.5a.875.875 0 1 0 0-1.75zM7.875 10.5h5.25a.875.875 0 1 0 0-1.75h-5.25a.875.875 0 0 0 0 1.75z" fill="#fff"/><path d="M46.994 2.006a.875.875 0 0 0-.619-.256h-12.25a4.38 4.38 0 0 0-4.375 4.375V22.75h-3.5V9.625a.875.875 0 0 0-.256-.619l-7-7a.875.875 0 0 0-.619-.256H6.125A4.38 4.38 0 0 0 1.75 6.125v22.75a4.38 4.38 0 0 0 4.375 4.375h9.625v16.625a4.38 4.38 0 0 0 4.375 4.375h15.75a4.38 4.38 0 0 0 4.375-4.375V33.25h9.625a4.38 4.38 0 0 0 4.375-4.375V9.625a.875.875 0 0 0-.256-.619l-7-7zm.256 2.731l4.013 4.013h-1.388a2.628 2.628 0 0 1-2.625-2.625V4.737zm-28 0l4.013 4.013h-1.388a2.628 2.628 0 0 1-2.625-2.625V4.737zm-3.5 22.388V31.5H6.125A2.628 2.628 0 0 1 3.5 28.875V6.125A2.628 2.628 0 0 1 6.125 3.5H17.5v2.625a4.38 4.38 0 0 0 4.375 4.375H24.5v12.25h-4.375a4.38 4.38 0 0 0-4.375 4.375zm22.75 22.75a2.628 2.628 0 0 1-2.625 2.625h-15.75a2.628 2.628 0 0 1-2.625-2.625v-22.75a2.628 2.628 0 0 1 2.625-2.625H31.5v2.625a4.38 4.38 0 0 0 4.375 4.375H38.5v18.375zm-5.25-22.75v-1.388l4.013 4.013h-1.388a2.628 2.628 0 0 1-2.625-2.625zm19.25 1.75a2.628 2.628 0 0 1-2.625 2.625H40.25v-.875a.875.875 0 0 0-.256-.619l-7-7a.875.875 0 0 0-.619-.256H31.5V6.125A2.628 2.628 0 0 1 34.125 3.5H45.5v2.625a4.38 4.38 0 0 0 4.375 4.375H52.5v18.375z" fill="#fff"/><path d="M48.125 14h-7a.875.875 0 1 0 0 1.75h7a.875.875 0 1 0 0-1.75zM43.75 20.125a.875.875 0 0 0-.875-.875h-7a.875.875 0 1 0 0 1.75h7a.875.875 0 0 0 .875-.875zM48.125 24.5h-7a.875.875 0 1 0 0 1.75h7a.875.875 0 1 0 0-1.75zM35.875 15.75h1.75a.875.875 0 1 0 0-1.75h-1.75a.875.875 0 1 0 0 1.75zM48.125 19.25h-1.75a.875.875 0 1 0 0 1.75h1.75a.875.875 0 1 0 0-1.75zM35.875 10.5h5.25a.875.875 0 1 0 0-1.75h-5.25a.875.875 0 1 0 0 1.75zM24.5 39.375a.875.875 0 1 0 0-1.75.875.875 0 0 0 0 1.75zM28 39.375a.875.875 0 1 0 0-1.75.875.875 0 0 0 0 1.75zM31.5 39.375a.875.875 0 1 0 0-1.75.875.875 0 0 0 0 1.75zM6.125 36.75a.875.875 0 0 0-.875.875v5.25a.875.875 0 0 0 .875.875h5.25a.875.875 0 1 0 0-1.75H7v-4.375a.875.875 0 0 0-.875-.875zM49.875 43.75a.875.875 0 0 0 .875-.875v-5.25a.875.875 0 1 0-1.75 0V42h-4.375a.875.875 0 1 0 0 1.75h5.25z" fill="#fff"/></svg>