<svg width="56" height="56" viewBox="0 0 56 56" fill="none" xmlns="http://www.w3.org/2000/svg"><path d="M10.493 8.762c-.524 0-.874.35-.874.874 0 .525.35.875.874.875h.875c.525 0 .874-.35.874-.875 0-.524-.35-.874-.874-.874h-.875zM13.991 8.762c-.524 0-.874.35-.874.874 0 .525.35.875.874.875h.875c.524 0 .874-.35.874-.875 0-.524-.35-.874-.874-.874h-.875zM6.996 10.51h.874c.525 0 .875-.35.875-.874s-.35-.874-.875-.874h-.874c-.525 0-.875.35-.875.874 0 .525.35.875.875.875zM25.36 35.87h-.875c-.525 0-.875.35-.875.874 0 .525.35.875.875.875h.874c.525 0 .875-.35.875-.875 0-.524-.35-.874-.875-.874zM21.862 37.619c.524 0 .874-.35.874-.875 0-.524-.35-.874-.874-.874h-.875c-.525 0-.874.35-.874.874 0 .525.35.875.874.875h.875z" fill="#fff"/><path d="M44.51 28.173c-.874-.087-1.661-.175-2.448-.175h-.088V9.635a.794.794 0 0 0-.262-.612L32.967.278a.794.794 0 0 0-.612-.262H.875C.35.016 0 .366 0 .89v54.217c0 .437.35.874.874.874H41.1c.087 0 .175 0 .262-.087h.7c6.733 0 12.504-4.897 13.729-11.543 1.311-7.608-3.673-14.866-11.28-16.178zM33.23 2.99L39 8.76H33.23V2.99zM1.749 54.232V1.765H31.48v7.87c0 .524.35.874.874.874h7.87v17.577c-6.121.787-10.756 5.334-11.892 11.455-1.05 6.034 1.923 12.068 6.908 14.691H1.749zM53.954 44.09c-.962 5.858-6.034 10.143-11.892 10.143-.7 0-1.4-.087-2.1-.175-6.558-1.136-11.017-7.52-9.793-14.166.962-5.509 5.509-9.619 11.018-10.056h.962c.612-.088 1.312 0 2.011.087 6.559 1.137 11.019 7.52 9.794 14.167z" fill="#fff"/><path d="M23.61 48.987H6.996c-.525 0-.875.35-.875.874 0 .525.35.875.875.875H23.61c.525 0 .875-.35.875-.875 0-.524-.35-.874-.875-.874zM6.996 7.013h11.368c.524 0 .874-.35.874-.875s-.35-.874-.874-.874H6.996c-.525 0-.875.35-.875.874 0 .525.35.875.875.875zM6.996 16.632h27.982c.525 0 .875-.35.875-.875 0-.524-.35-.874-.875-.874H6.996c-.525 0-.875.35-.875.874 0 .525.35.875.875.875zM6.996 20.13h27.982c.525 0 .875-.35.875-.875s-.35-.874-.875-.874H6.996c-.525 0-.875.35-.875.874 0 .525.35.875.875.875zM6.996 23.628h27.982c.525 0 .875-.35.875-.875s-.35-.874-.875-.874H6.996c-.525 0-.875.35-.875.874 0 .525.35.875.875.875zM6.996 27.125h27.982c.525 0 .875-.35.875-.874 0-.525-.35-.875-.875-.875H6.996c-.525 0-.875.35-.875.875s.35.874.875.874zM6.996 30.623H31.48c.524 0 .874-.35.874-.874 0-.525-.35-.875-.874-.875H6.996c-.525 0-.875.35-.875.875 0 .524.35.874.875.874zM28.857 33.246c0-.524-.35-.874-.874-.874H6.996c-.525 0-.875.35-.875.874 0 .525.35.875.875.875h20.987c.524 0 .874-.35.874-.875zM6.996 37.619h11.368c.524 0 .874-.35.874-.875 0-.524-.35-.874-.874-.874H6.996c-.525 0-.875.35-.875.874 0 .525.35.875.875.875zM25.36 39.368H6.995c-.525 0-.875.35-.875.874 0 .525.35.875.875.875h18.363c.525 0 .875-.35.875-.875 0-.524-.35-.874-.875-.874zM25.36 42.866H6.995c-.525 0-.875.35-.875.874 0 .525.35.875.875.875h18.363c.525 0 .875-.35.875-.875s-.35-.874-.875-.874zM43.286 35.87h-.437v-1.749c0-.525-.35-.874-.875-.874-.524 0-.874.35-.874.874v1.749c0 .087 0 .175.087.262a3.068 3.068 0 0 0-2.886 3.06c0 .963.438 1.925 1.312 2.537l4.46 2.798c.35.262.525.612.525 1.05v.787c0 .7-.613.874-1.312.874h-1.924c-.7 0-1.137-.175-1.137-.874v-1.137c0-.525-.35-.875-.874-.875-.525 0-.875.35-.875.875v1.137c0 1.574 1.05 2.885 2.624 3.06v1.312c0 .525.35.874.874.874.525 0 .875-.35.875-.874v-1.75h.437c1.661 0 3.06-.961 3.06-2.622v-.875c0-.962-.437-1.924-1.311-2.536l-4.46-2.798c-.35-.263-.525-.787-.525-1.137 0-.7.613-1.4 1.312-1.4h1.924c.7 0 1.312.788 1.312 1.487v.263c0 .524.35.874.874.874.525 0 .874-.35.874-.874v-.263c0-1.661-1.399-3.235-3.06-3.235z" fill="#fff"/></svg>