<svg width="58" height="58" viewBox="0 0 58 58" fill="none" xmlns="http://www.w3.org/2000/svg"><path d="M14.447 29.906h13.005a1.133 1.133 0 0 0 0-2.265H14.447a1.133 1.133 0 0 0 0 2.265zM35.85 35.797H14.447a1.133 1.133 0 1 0 0 2.266H35.85a1.133 1.133 0 0 0 0-2.266zM35.85 43.953H19.031a1.133 1.133 0 0 0 0 2.266h16.82a1.133 1.133 0 0 0 0-2.266zM43.832 34.77c-.21.21-.332.502-.332.8 0 .298.121.59.332.801.21.21.503.332.8.332.299 0 .591-.121.802-.332.21-.21.332-.503.332-.8 0-.299-.122-.59-.332-.802a1.141 1.141 0 0 0-.801-.331c-.298 0-.59.12-.801.331z" fill="#fff"/><path d="M41.914 0c-3.586 0-6.902 1.18-9.58 3.172H3.398A3.402 3.402 0 0 0 0 6.57v43.5a3.402 3.402 0 0 0 3.398 3.399h1.133A4.536 4.536 0 0 0 9.063 58h32.171a4.536 4.536 0 0 0 4.532-4.531V40.102a1.133 1.133 0 1 0-2.266 0v13.367a2.268 2.268 0 0 1-2.266 2.265H9.062a2.268 2.268 0 0 1-2.265-2.265V21.75h8.383a3.402 3.402 0 0 0 3.398-3.398V9.969h8.46a16.083 16.083 0 0 0-.847 9.516h-4.403a1.133 1.133 0 0 0 0 2.265h5.07c2.297 6.083 8.179 10.422 15.056 10.422 8.87 0 16.086-7.216 16.086-16.086C58 7.216 50.784 0 41.914 0zM16.312 18.352c0 .624-.508 1.132-1.132 1.132H8.399l7.914-7.913v6.78zm1.133-10.649a1.13 1.13 0 0 0-.8.331L4.862 19.817v.001a1.129 1.129 0 0 0-.332.8v30.586H3.398a1.134 1.134 0 0 1-1.132-1.133V6.57c0-.624.508-1.133 1.132-1.133h26.47a16.176 16.176 0 0 0-1.678 2.266H17.445zm24.47 22.203c-7.621 0-13.821-6.2-13.821-13.82s6.2-13.82 13.82-13.82 13.82 6.2 13.82 13.82-6.2 13.82-13.82 13.82z" fill="#fff"/><path d="M52.453 14.965h-.913a1.133 1.133 0 0 0 0 2.266h.913a1.133 1.133 0 0 0 0-2.266zM32.288 14.94h-.913a1.133 1.133 0 0 0 0 2.266h.913a1.133 1.133 0 1 0 0-2.265zM41.926 7.593c.626 0 1.133-.507 1.133-1.133v-.913a1.133 1.133 0 0 0-2.266 0v.913c0 .626.508 1.133 1.133 1.133zM41.902 24.58c-.626 0-1.133.506-1.133 1.132v.913a1.133 1.133 0 0 0 2.266 0v-.913c0-.626-.507-1.133-1.133-1.133zM41.115 16.889a1.129 1.129 0 0 0 1.6-.002l7.831-7.831a1.133 1.133 0 0 0-1.602-1.602l-7.03 7.03L37.83 10.4a1.133 1.133 0 0 0-1.602 1.602l4.874 4.874.013.013zM13.7 44.285c-.212.21-.333.503-.333.8 0 .299.121.591.332.802.21.21.503.332.801.332.298 0 .59-.122.8-.332.211-.21.333-.503.333-.801 0-.298-.121-.59-.332-.801a1.141 1.141 0 0 0-.801-.332c-.298 0-.59.121-.8.332z" fill="#fff"/></svg>