<svg width="55" height="44" viewBox="0 0 55 44" fill="none" xmlns="http://www.w3.org/2000/svg"><path d="M4.251 19.411h2.584a.8.8 0 0 0 .807-.792.8.8 0 0 0-.807-.793H4.25a.8.8 0 0 0-.807.793.8.8 0 0 0 .807.792zM4.251 12.649h18.083a.8.8 0 0 0 .807-.793.8.8 0 0 0-.807-.793H4.25a.8.8 0 0 0-.807.793.8.8 0 0 0 .807.793zM25.778 12.649h3.444a.8.8 0 0 0 .807-.793.8.8 0 0 0-.807-.793h-3.444a.8.8 0 0 0-.807.793.8.8 0 0 0 .807.793zM40.416 12.649h10.333a.8.8 0 0 0 .807-.793.8.8 0 0 0-.807-.793H40.416a.8.8 0 0 0-.807.793.8.8 0 0 0 .807.793zM40.416 17.826a.818.818 0 0 0-.57.233.788.788 0 0 0-.237.56c0 .208.086.413.236.56a.818.818 0 0 0 1.141 0 .788.788 0 0 0 .237-.56.788.788 0 0 0-.237-.56.818.818 0 0 0-.57-.233zM40.986 24.822a.818.818 0 0 0-1.14 0 .788.788 0 0 0-.237.56c0 .209.086.414.236.56a.818.818 0 0 0 1.141 0 .788.788 0 0 0 .237-.56.788.788 0 0 0-.237-.56zM40.416 31.352a.818.818 0 0 0-.57.233.788.788 0 0 0-.237.56c0 .208.086.413.236.56a.818.818 0 0 0 1.141 0 .788.788 0 0 0 .237-.56.788.788 0 0 0-.237-.56.818.818 0 0 0-.57-.233zM43.86 31.352a.816.816 0 0 0-.57.233.788.788 0 0 0-.237.56c0 .208.086.413.237.56a.816.816 0 0 0 1.14 0 .788.788 0 0 0 .237-.56.788.788 0 0 0-.236-.56.816.816 0 0 0-.57-.233zM40.416 38.116a.818.818 0 0 0-.57.233.788.788 0 0 0-.237.56c0 .208.086.413.236.56a.818.818 0 0 0 1.141 0 .788.788 0 0 0 .237-.56.788.788 0 0 0-.237-.56.818.818 0 0 0-.57-.233zM43.86 38.116a.818.818 0 0 0-.57.233.788.788 0 0 0-.237.56c0 .208.086.413.237.56a.818.818 0 0 0 1.14 0 .788.788 0 0 0 .237-.56.788.788 0 0 0-.236-.56.818.818 0 0 0-.57-.233zM47.875 31.585a.818.818 0 0 0-1.141 0 .786.786 0 0 0-.237.56c0 .21.086.413.237.56a.818.818 0 0 0 1.14 0 .789.789 0 0 0 .237-.56.789.789 0 0 0-.236-.56zM44.43 18.059a.816.816 0 0 0-1.14 0 .788.788 0 0 0-.237.56c0 .208.086.413.237.56a.818.818 0 0 0 1.14 0 .788.788 0 0 0 .237-.56.788.788 0 0 0-.236-.56zM6.835 38.116H4.25a.8.8 0 0 0-.807.793.8.8 0 0 0 .807.792h2.584a.8.8 0 0 0 .807-.792.8.8 0 0 0-.807-.793zM15.445 5.885h24.11a.8.8 0 0 0 .807-.793.8.8 0 0 0-.807-.792h-24.11a.8.8 0 0 0-.807.792.8.8 0 0 0 .807.793zM4.251 26.175h2.584a.8.8 0 0 0 .807-.793.8.8 0 0 0-.807-.792H4.25a.8.8 0 0 0-.807.792.8.8 0 0 0 .807.793zM6.835 31.352H4.25a.8.8 0 0 0-.807.793.8.8 0 0 0 .807.793h2.584a.8.8 0 0 0 .807-.793.8.8 0 0 0-.807-.793zM23.195 31.352h-1.722a.8.8 0 0 0-.808.793.8.8 0 0 0 .808.793h1.722a.8.8 0 0 0 .807-.793.8.8 0 0 0-.807-.793zM21.473 39.701h1.722a.8.8 0 0 0 .807-.792.8.8 0 0 0-.807-.793h-1.722a.8.8 0 0 0-.808.793.8.8 0 0 0 .808.792zM23.195 24.59h-1.722a.8.8 0 0 0-.808.792.8.8 0 0 0 .808.793h1.722a.8.8 0 0 0 .807-.793.8.8 0 0 0-.807-.792zM21.473 19.411h1.722a.8.8 0 0 0 .807-.792.8.8 0 0 0-.807-.793h-1.722a.8.8 0 0 0-.808.793.8.8 0 0 0 .808.792zM26.639 19.411h3.444a.8.8 0 0 0 .807-.792.8.8 0 0 0-.807-.793H26.64a.8.8 0 0 0-.807.793.8.8 0 0 0 .807.792zM32.666 24.59H26.64a.8.8 0 0 0-.807.792.8.8 0 0 0 .807.793h6.027a.8.8 0 0 0 .808-.793.8.8 0 0 0-.808-.792zM28.361 31.352H26.64a.8.8 0 0 0-.807.793.8.8 0 0 0 .807.793h1.722a.8.8 0 0 0 .807-.793.8.8 0 0 0-.807-.793zM26.639 39.701h3.444a.8.8 0 0 0 .807-.792.8.8 0 0 0-.807-.793H26.64a.8.8 0 0 0-.807.793.8.8 0 0 0 .807.792z" fill="#fff"/><path d="M50.748.918H4.252C1.907.918 0 2.791 0 5.093v33.816c0 2.301 1.907 4.174 4.251 4.174H50.75c2.344 0 4.251-1.873 4.251-4.174V5.093C55 2.79 53.093.918 50.748.918zM18.837 34.734v-5.178h17.328v5.178H18.836zm17.328 1.586v5.178H18.836V36.32h17.328zM53.385 9.267v5.178H37.78V9.267h15.606zm-17.22 6.763v5.178h-17.33V16.03h17.33zM17.22 21.208H1.614V16.03h15.607v5.178zm0 1.585v5.178H1.614v-5.178h15.607zm1.615 0h17.328v5.178H18.836v-5.178zm18.943 0h15.606v5.178H37.78v-5.178zm0-1.585V16.03h15.606v5.178H37.78zm-1.615-6.763H1.614V9.267h34.55v5.178zM1.614 29.556h15.607v5.178H1.614v-5.178zm36.165 0h15.606v5.178H37.78v-5.178zM4.25 2.504H50.75c1.453 0 2.636 1.161 2.636 2.589v2.589H1.615v-2.59c0-1.427 1.182-2.588 2.636-2.588zM1.614 38.909v-2.59h15.607v5.179H4.251c-1.454 0-2.637-1.162-2.637-2.59zm49.135 2.589h-12.97V36.32h15.606v2.589c0 1.427-1.182 2.589-2.636 2.589z" fill="#fff"/></svg>