<svg width="61" height="61" viewBox="0 0 61 61" fill="none" xmlns="http://www.w3.org/2000/svg"><g clip-path="url(#a)" fill="#fff"><path d="M48.581 27.513h-3.648v-5.998a.893.893 0 1 0-1.787 0v5.998h-5.451V14.39h5.451v3.552a.893.893 0 1 0 1.787 0v-4.445c0-.494-.4-.894-.893-.894h-2.726v-3.54c0-4.49-3.653-8.143-8.143-8.143a8.096 8.096 0 0 0-4.52 1.373A8.113 8.113 0 0 0 22.994 0c-4.49 0-8.143 3.653-8.143 8.143v4.46H9.187c-.493 0-.893.4-.893.894v8.171a.893.893 0 1 0 1.787 0V14.39h4.77v3.11a.893.893 0 1 0 1.787 0v-3.11H29.35v3.11a.893.893 0 1 0 1.787 0v-3.11h4.771v13.123H28.69a4.13 4.13 0 0 0-4.125 4.125v9.212c0 .756.615 1.371 1.371 1.371h5.093v4.722H12.683a2.605 2.605 0 0 1-2.602-2.602v-19.1a.893.893 0 1 0-1.787 0v19.1c0 2.42 1.969 4.389 4.389 4.389h18.346v1.056a.893.893 0 1 0 1.787 0V31.638a4.1 4.1 0 0 0-.73-2.338h16.495a2.34 2.34 0 0 1 2.338 2.338v26.058l-.663-.847a1.173 1.173 0 0 0-.93-.452c-.364 0-.703.165-.928.452l-1.557 1.987-1.558-1.987a1.173 1.173 0 0 0-.928-.452c-.365 0-.704.165-.929.452l-1.558 1.987-1.557-1.987a1.173 1.173 0 0 0-.929-.452c-.365 0-.703.164-.929.452l-1.557 1.987-1.559-1.987a1.173 1.173 0 0 0-.928-.452c-.365 0-.704.165-.928.452l-.665.847V53.36a.893.893 0 1 0-1.787 0v6.096a1.18 1.18 0 0 0 2.108.728l1.272-1.622 1.558 1.987c.226.288.564.452.929.452.365 0 .703-.164.928-.452l1.558-1.987 1.558 1.987c.225.288.563.452.928.452.365 0 .704-.164.93-.452l1.557-1.987 1.557 1.987c.226.287.564.452.929.452.365 0 .703-.165.929-.452l1.557-1.987 1.27 1.621a1.181 1.181 0 0 0 2.11-.727V31.638a4.13 4.13 0 0 0-4.126-4.125zM16.638 8.143a6.363 6.363 0 0 1 6.356-6.356c1.65 0 3.153.631 4.284 1.665a8.112 8.112 0 0 0-2.25 5.61v3.541h-8.39v-4.46zm10.177 4.46v-3.54c0-1.62.609-3.098 1.609-4.22.587.962.926 2.092.926 3.3v4.46h-2.535zm4.322 0v-4.46A8.093 8.093 0 0 0 29.8 3.678a6.316 6.316 0 0 1 3.372-.971 6.363 6.363 0 0 1 6.356 6.356v3.54h-8.39zm-.108 19.035v8.796h-4.677v-8.796A2.34 2.34 0 0 1 28.69 29.3a2.34 2.34 0 0 1 2.339 2.338z"/><path d="M37.909 54.854c.494 0 .894-.4.894-.894v-.144a2.557 2.557 0 0 0 1.623-1.973c.195-1.16-.433-2.208-1.562-2.607-.109-.039-.215-.075-.319-.11-.396-.137-.89-.307-.998-.434-.152-.176-.16-.588.126-.674.745-.225 1.34-.085 1.369-.078a.894.894 0 0 0 .476-1.722 3.563 3.563 0 0 0-.73-.108.893.893 0 0 0-1.773.155v.09a2.063 2.063 0 0 0-1.267 1.377 2.3 2.3 0 0 0 .445 2.126c.424.493 1.048.708 1.77.957l.305.106c.314.11.447.321.395.626-.04.238-.245.642-.76.646-.554.002-.684-.017-1.087-.28a.894.894 0 0 0-.978 1.495c.443.29.796.437 1.177.51v.042c0 .494.4.894.894.894zM46.263 31.777h-8.79a.893.893 0 1 0 0 1.788h8.79a.893.893 0 1 0 0-1.788zM34.344 37.774c0 .493.4.893.894.893h1.88a.893.893 0 1 0 0-1.787h-1.88c-.494 0-.894.4-.894.894zM48.497 36.88h-8.776a.893.893 0 1 0 0 1.787h8.776a.893.893 0 1 0 0-1.787zM35.238 42.792h1.88a.893.893 0 1 0 0-1.787h-1.88a.893.893 0 1 0 0 1.787zM48.497 41.005h-8.776a.893.893 0 1 0 0 1.787h8.776a.893.893 0 1 0 0-1.787zM48.497 46.799H44.05a.893.893 0 1 0 0 1.787h4.447a.893.893 0 1 0 0-1.787z"/></g><defs><clipPath id="a"><path fill="#fff" d="M0 0h61v61H0z"/></clipPath></defs></svg>