<svg width="505" height="109" viewBox="0 0 505 109" fill="none" xmlns="http://www.w3.org/2000/svg"><path fill-rule="evenodd" clip-rule="evenodd" d="M6.808 22.972h113.955v50.6a6.709 6.709 0 0 1-1.994 4.768 6.843 6.843 0 0 1-4.814 1.975H6.808a6.842 6.842 0 0 1-4.814-1.975A6.71 6.71 0 0 1 0 73.573V29.715a6.71 6.71 0 0 1 1.994-4.768 6.842 6.842 0 0 1 4.814-1.975z" fill="#FBBA00"/><path fill-rule="evenodd" clip-rule="evenodd" d="M134.921 16.861c2.29-3.012 3.391-8.205 1.608-16.861-22.496 3.462-17.671 15.502-15.521 19.267a77.167 77.167 0 0 1 11.641-13.952 84.812 84.812 0 0 0-7.744 13.598c3.033-3.463 6.59-3.645 10.016-2.052zM142 23.924c-9.858 11.01-15.146 4.916-17.112 1.61a26.457 26.457 0 0 1 9.509-1.298 29.521 29.521 0 0 0-10.06-1.255c1.198-2.848 6.127-11.253 17.663.943z" fill="#85BC22"/><path fill-rule="evenodd" clip-rule="evenodd" d="M68.833 35.557h2.962v2.934h-2.962v-2.934zm-42.43 18.385l7.358-18.385h4.894L27.346 61.948c-1.66 3.87-3.837 5.583-7.866 5.739a16.544 16.544 0 0 1-6.117-1.073v-3.696c3.819 1.107 4.317 1.237 5.68 1.211 1.862 0 3.435-.986 5.244-5.124L13.39 35.557h4.728l8.285 18.385zm32.082 13.745h-4.081v-8.543a21.651 21.651 0 0 1-5.498.7c-5.724 0-9.124-2.925-9.176-8.707v-6.993h4.064v7.158c0 3.514 1.748 5.046 5.112 5.046a21.656 21.656 0 0 0 5.498-.701V44.144h4.08v23.543zm16.255 0c-7.62 0-11.308-4.951-11.308-11.85 0-6.059 3.941-11.676 10.784-11.676 8.53 0 10.147 6.171 10.147 12.88H67.189a7.262 7.262 0 0 0 .582 2.877c.388.91.958 1.734 1.675 2.42a7.402 7.402 0 0 0 2.501 1.575 7.458 7.458 0 0 0 2.925.476 8.144 8.144 0 0 0 3.649-.694 8.068 8.068 0 0 0 2.949-2.24l2.622 1.843c-2.098 2.926-5.215 4.389-9.352 4.389zm-.524-20.35c-3.976 0-6.432 3.09-6.887 6.527h13.276c0-3.523-2.404-6.526-6.389-6.526zm33.149.078h-7.97v20.272H95.33V47.415h-7.866v-3.271h19.856v3.254l.044.017zM76.034 35.583h2.963v2.934h-2.963v-2.934z" fill="#fff"/><path d="M159.68 80h-2.208l-7.872-8.136V80h-1.68V63.2h1.68v7.68l7.632-7.68h2.208l-8.064 8.16L159.68 80zm10.9-1.512c-1.216 1.2-2.704 1.8-4.464 1.8-1.76 0-3.256-.6-4.488-1.8-1.216-1.216-1.824-2.712-1.824-4.488 0-1.776.608-3.264 1.824-4.464 1.232-1.216 2.728-1.824 4.488-1.824 1.76 0 3.248.608 4.464 1.824 1.232 1.2 1.848 2.688 1.848 4.464 0 1.776-.616 3.272-1.848 4.488zm-7.824-1.104c.912.912 2.032 1.368 3.36 1.368 1.328 0 2.448-.456 3.36-1.368.912-.928 1.368-2.056 1.368-3.384 0-1.328-.456-2.448-1.368-3.36-.912-.928-2.032-1.392-3.36-1.392-1.328 0-2.448.464-3.36 1.392-.912.912-1.368 2.032-1.368 3.36 0 1.328.456 2.456 1.368 3.384zM182.758 68v1.536h-6.096V80h-1.584V68h7.68zm11.283 10.464h1.68v4.752h-1.584V80h-9.792v3.216h-1.584v-4.752h1.464c.816-1.072 1.224-2.584 1.224-4.536V68h8.592v10.464zm-7.896 0h6.312v-8.928h-5.424v4.392c0 1.84-.296 3.352-.888 4.536zM207.969 68h1.584v12h-1.584v-2.352c-1.104 1.76-2.72 2.64-4.848 2.64-1.712 0-3.176-.608-4.392-1.824-1.2-1.216-1.8-2.704-1.8-4.464 0-1.76.6-3.248 1.8-4.464 1.216-1.216 2.68-1.824 4.392-1.824 2.128 0 3.744.88 4.848 2.64V68zm-8.088 9.384c.912.912 2.032 1.368 3.36 1.368 1.328 0 2.448-.456 3.36-1.368.912-.928 1.368-2.056 1.368-3.384 0-1.328-.456-2.448-1.368-3.36-.912-.928-2.032-1.392-3.36-1.392-1.328 0-2.448.464-3.36 1.392-.912.912-1.368 2.032-1.368 3.36 0 1.328.456 2.456 1.368 3.384zm24.354 2.904c-1.728 0-3.168-.568-4.32-1.704-1.152-1.152-1.728-2.64-1.728-4.464 0-2.048.304-3.616.912-4.704.608-1.104 1.84-2.104 3.696-3a23.05 23.05 0 0 1 1.392-.624c.592-.24 1.032-.432 1.32-.576a9.15 9.15 0 0 0 .984-.552c.352-.24.616-.504.792-.792.176-.288.288-.632.336-1.032l1.248.72a3.23 3.23 0 0 1-.384 1.08 3.853 3.853 0 0 1-.6.816c-.192.208-.504.44-.936.696-.416.24-.744.416-.984.528-.224.096-.624.264-1.2.504-.56.24-.936.4-1.128.48-1.12.48-1.944.984-2.472 1.512-.528.512-.904 1.184-1.128 2.016a4.791 4.791 0 0 1 2.064-1.584c.848-.352 1.672-.528 2.472-.528 1.6 0 2.92.528 3.96 1.584 1.056 1.04 1.584 2.376 1.584 4.008 0 1.616-.56 2.96-1.68 4.032-1.104 1.056-2.504 1.584-4.2 1.584zm0-1.584c1.248 0 2.272-.376 3.072-1.128.816-.768 1.224-1.736 1.224-2.904 0-1.184-.384-2.152-1.152-2.904-.752-.768-1.76-1.152-3.024-1.152-1.136 0-2.168.36-3.096 1.08-.928.704-1.392 1.648-1.392 2.832 0 1.216.416 2.216 1.248 3 .848.784 1.888 1.176 3.12 1.176zM240.695 68h1.68l-5.136 13.104c-.464 1.184-1.128 2.112-1.992 2.784-.848.688-1.8.992-2.856.912v-1.488c1.44.16 2.536-.672 3.288-2.496l.312-.744L230.615 68h1.68l4.512 10.056L240.695 68zm13.674 12h-1.896l-3.744-4.944L244.985 80h-1.896l4.704-6.216L243.401 68h1.896l3.432 4.536L252.161 68h1.896l-4.368 5.784 4.68 6.216zm9.835-12v1.536h-6.096V80h-1.584V68h7.68zm11.78 0h1.584v12h-1.584v-2.352c-1.104 1.76-2.72 2.64-4.848 2.64-1.712 0-3.176-.608-4.392-1.824-1.2-1.216-1.8-2.704-1.8-4.464 0-1.76.6-3.248 1.8-4.464 1.216-1.216 2.68-1.824 4.392-1.824 2.128 0 3.744.88 4.848 2.64V68zm-8.088 9.384c.912.912 2.032 1.368 3.36 1.368 1.328 0 2.448-.456 3.36-1.368.912-.928 1.368-2.056 1.368-3.384 0-1.328-.456-2.448-1.368-3.36-.912-.928-2.032-1.392-3.36-1.392-1.328 0-2.448.464-3.36 1.392-.912.912-1.368 2.032-1.368 3.36 0 1.328.456 2.456 1.368 3.384zM290.762 68v12h-1.584V69.536h-5.424v5.352c0 2-.384 3.376-1.152 4.128-.752.752-1.792 1.08-3.12.984v-1.488c.912.096 1.584-.12 2.016-.648.448-.528.672-1.52.672-2.976V68h8.592zm11.996 0v1.536h-4.248V80h-1.584V69.536h-4.248V68h10.08zm7.005-.288c1.776 0 3.208.632 4.296 1.896 1.104 1.248 1.656 2.728 1.656 4.44 0 .176-.016.424-.048.744h-10.536c.16 1.216.672 2.184 1.536 2.904.88.704 1.96 1.056 3.24 1.056.912 0 1.696-.184 2.352-.552.672-.384 1.176-.88 1.512-1.488l1.392.816a5.7 5.7 0 0 1-2.16 2.016c-.912.496-1.952.744-3.12.744-1.888 0-3.424-.592-4.608-1.776-1.184-1.184-1.776-2.688-1.776-4.512 0-1.792.584-3.288 1.752-4.488 1.168-1.2 2.672-1.8 4.512-1.8zm0 1.536c-1.248 0-2.296.376-3.144 1.128-.832.736-1.328 1.696-1.488 2.88h8.952c-.16-1.264-.648-2.248-1.464-2.952a4.237 4.237 0 0 0-2.856-1.056zm14.904-1.536c1.712 0 3.168.608 4.368 1.824 1.216 1.216 1.824 2.704 1.824 4.464 0 1.76-.608 3.248-1.824 4.464-1.2 1.216-2.656 1.824-4.368 1.824-2.128 0-3.744-.88-4.848-2.64V84.8h-1.584V68h1.584v2.352c1.104-1.76 2.72-2.64 4.848-2.64zm-3.48 9.672c.912.912 2.032 1.368 3.36 1.368 1.328 0 2.448-.456 3.36-1.368.912-.928 1.368-2.056 1.368-3.384 0-1.328-.456-2.448-1.368-3.36-.912-.928-2.032-1.392-3.36-1.392-1.328 0-2.448.464-3.36 1.392-.912.912-1.368 2.032-1.368 3.36 0 1.328.456 2.456 1.368 3.384zm25.938-3.552c1.312.48 1.968 1.416 1.968 2.808 0 .976-.328 1.784-.984 2.424-.64.624-1.568.936-2.784.936h-5.832V68h5.352c1.168 0 2.072.304 2.712.912.64.592.96 1.36.96 2.304 0 1.2-.464 2.072-1.392 2.616zm-2.28-4.296h-3.768v3.648h3.768c1.392 0 2.088-.624 2.088-1.872 0-.56-.184-.992-.552-1.296-.352-.32-.864-.48-1.536-.48zm.48 8.928c.704 0 1.24-.168 1.608-.504.384-.336.576-.808.576-1.416 0-.56-.192-1-.576-1.32-.368-.336-.904-.504-1.608-.504h-4.248v3.744h4.248zm16.224.024c-1.216 1.2-2.704 1.8-4.464 1.8-1.76 0-3.256-.6-4.488-1.8-1.216-1.216-1.824-2.712-1.824-4.488 0-1.776.608-3.264 1.824-4.464 1.232-1.216 2.728-1.824 4.488-1.824 1.76 0 3.248.608 4.464 1.824 1.232 1.2 1.848 2.688 1.848 4.464 0 1.776-.616 3.272-1.848 4.488zm-7.824-1.104c.912.912 2.032 1.368 3.36 1.368 1.328 0 2.448-.456 3.36-1.368.912-.928 1.367-2.056 1.367-3.384 0-1.328-.455-2.448-1.367-3.36-.912-.928-2.032-1.392-3.36-1.392-1.328 0-2.448.464-3.36 1.392-.912.912-1.368 2.032-1.368 3.36 0 1.328.456 2.456 1.368 3.384zm25.954-3.552c1.312.48 1.968 1.416 1.968 2.808 0 .976-.328 1.784-.984 2.424-.64.624-1.568.936-2.784.936h-5.832V68h5.352c1.168 0 2.072.304 2.712.912.64.592.96 1.36.96 2.304 0 1.2-.464 2.072-1.392 2.616zm-2.28-4.296h-3.768v3.648h3.768c1.392 0 2.088-.624 2.088-1.872 0-.56-.184-.992-.552-1.296-.352-.32-.864-.48-1.536-.48zm.48 8.928c.704 0 1.24-.168 1.608-.504.384-.336.576-.808.576-1.416 0-.56-.192-1-.576-1.32-.368-.336-.904-.504-1.608-.504h-4.248v3.744h4.248zm11.76 1.824c-1.808 0-3.312-.6-4.512-1.8-1.2-1.216-1.8-2.712-1.8-4.488 0-1.776.6-3.264 1.8-4.464 1.2-1.216 2.704-1.824 4.512-1.824 1.184 0 2.248.288 3.192.864.944.56 1.632 1.32 2.064 2.28l-1.296.744c-.32-.72-.84-1.288-1.56-1.704-.704-.432-1.504-.648-2.4-.648-1.328 0-2.448.464-3.36 1.392-.912.912-1.368 2.032-1.368 3.36 0 1.328.456 2.456 1.368 3.384.912.912 2.032 1.368 3.36 1.368.896 0 1.696-.208 2.4-.624a4.638 4.638 0 0 0 1.656-1.728l1.32.768a5.546 5.546 0 0 1-2.184 2.28c-.96.56-2.024.84-3.192.84zm13.077-12.576c1.776 0 3.208.632 4.296 1.896 1.104 1.248 1.656 2.728 1.656 4.44 0 .176-.016.424-.048.744h-10.536c.16 1.216.672 2.184 1.536 2.904.88.704 1.96 1.056 3.24 1.056.912 0 1.696-.184 2.352-.552.672-.384 1.176-.88 1.512-1.488l1.392.816a5.7 5.7 0 0 1-2.16 2.016c-.912.496-1.952.744-3.12.744-1.888 0-3.424-.592-4.608-1.776-1.184-1.184-1.776-2.688-1.776-4.512 0-1.792.584-3.288 1.752-4.488 1.168-1.2 2.672-1.8 4.512-1.8zm0 1.536c-1.248 0-2.296.376-3.144 1.128-.832.736-1.328 1.696-1.488 2.88h8.952c-.16-1.264-.648-2.248-1.464-2.952a4.237 4.237 0 0 0-2.856-1.056zm18.528 9.24c-1.216 1.2-2.704 1.8-4.464 1.8-1.76 0-3.256-.6-4.488-1.8-1.216-1.216-1.824-2.712-1.824-4.488 0-1.776.608-3.264 1.824-4.464 1.232-1.216 2.728-1.824 4.488-1.824 1.76 0 3.248.608 4.464 1.824 1.232 1.2 1.848 2.688 1.848 4.464 0 1.776-.616 3.272-1.848 4.488zm-7.824-1.104c.912.912 2.032 1.368 3.36 1.368 1.328 0 2.448-.456 3.36-1.368.912-.928 1.368-2.056 1.368-3.384 0-1.328-.456-2.448-1.368-3.36-.912-.928-2.032-1.392-3.36-1.392-1.328 0-2.448.464-3.36 1.392-.912.912-1.368 2.032-1.368 3.36 0 1.328.456 2.456 1.368 3.384zm18.755-9.672c1.712 0 3.168.608 4.368 1.824 1.216 1.216 1.824 2.704 1.824 4.464 0 1.76-.608 3.248-1.824 4.464-1.2 1.216-2.656 1.824-4.368 1.824-2.128 0-3.744-.88-4.848-2.64V84.8h-1.584V68h1.584v2.352c1.104-1.76 2.72-2.64 4.848-2.64zm-3.48 9.672c.912.912 2.032 1.368 3.36 1.368 1.328 0 2.448-.456 3.36-1.368.912-.928 1.368-2.056 1.368-3.384 0-1.328-.456-2.448-1.368-3.36-.912-.928-2.032-1.392-3.36-1.392-1.328 0-2.448.464-3.36 1.392-.912.912-1.368 2.032-1.368 3.36 0 1.328.456 2.456 1.368 3.384zM449.172 68h1.68l-5.136 13.104c-.464 1.184-1.128 2.112-1.992 2.784-.848.688-1.8.992-2.856.912v-1.488c1.44.16 2.536-.672 3.288-2.496l.312-.744L439.092 68h1.68l4.512 10.056L449.172 68zm17.376 12h-1.92l-4.896-5.784V80h-1.584v-5.784L453.252 80h-1.92l5.376-6.24-5.136-5.76h1.92l4.656 5.328V68h1.584v5.328L464.388 68h1.92l-5.136 5.76 5.376 6.24zm10.891-12h1.344v12h-1.584v-9.24L470.047 80h-1.344V68h1.584v9.24l7.152-9.24zm13.43 0h1.344v12h-1.584v-9.24L483.477 80h-1.344V68h1.584v9.24l7.152-9.24zm5.174 7.44l-.36-7.44v-4.8h1.92V68l-.36 7.44h-1.2zm1.536 4.416a1.274 1.274 0 0 1-.936.384c-.368 0-.68-.128-.936-.384a1.274 1.274 0 0 1-.384-.936c0-.368.128-.68.384-.936s.568-.384.936-.384c.368 0 .68.128.936.384s.384.568.384.936c0 .368-.128.68-.384.936zM165.296 49l-2.052-5.652h-11.34L149.852 49h-3.564l9.396-25.2h3.78L168.86 49h-3.564zm-12.24-8.784h9.036l-4.536-12.42-4.5 12.42zm28.389-9.684c2.52 0 4.668.924 6.444 2.772 1.776 1.824 2.664 4.056 2.664 6.696 0 2.64-.888 4.884-2.664 6.732-1.776 1.824-3.924 2.736-6.444 2.736-2.976 0-5.244-1.188-6.804-3.564V56.2h-3.132V31h3.132v3.096c1.56-2.376 3.828-3.564 6.804-3.564zm-.396 15.912c1.8 0 3.312-.612 4.536-1.836 1.224-1.248 1.836-2.784 1.836-4.608 0-1.824-.612-3.348-1.836-4.572-1.224-1.248-2.736-1.872-4.536-1.872-1.824 0-3.348.624-4.572 1.872-1.224 1.224-1.836 2.748-1.836 4.572 0 1.824.612 3.36 1.836 4.608 1.224 1.224 2.748 1.836 4.572 1.836zm21.701 3.024c-2.712 0-4.968-.9-6.768-2.7-1.8-1.824-2.7-4.08-2.7-6.768 0-2.688.9-4.932 2.7-6.732 1.8-1.824 4.056-2.736 6.768-2.736 1.776 0 3.372.432 4.788 1.296 1.416.84 2.472 1.98 3.168 3.42l-2.628 1.512c-.456-.96-1.164-1.728-2.124-2.304-.936-.576-2.004-.864-3.204-.864-1.8 0-3.312.612-4.536 1.836-1.2 1.224-1.8 2.748-1.8 4.572 0 1.8.6 3.312 1.8 4.536 1.224 1.224 2.736 1.836 4.536 1.836 1.2 0 2.28-.276 3.24-.828a5.787 5.787 0 0 0 2.196-2.304l2.664 1.548c-.768 1.416-1.872 2.556-3.312 3.42-1.44.84-3.036 1.26-4.788 1.26zm13.142-8.028c.312 1.608 1.044 2.856 2.196 3.744 1.176.888 2.616 1.332 4.32 1.332 2.376 0 4.104-.876 5.184-2.628l2.664 1.512c-1.752 2.712-4.392 4.068-7.92 4.068-2.856 0-5.184-.888-6.984-2.664-1.776-1.8-2.664-4.068-2.664-6.804 0-2.712.876-4.968 2.628-6.768 1.752-1.8 4.02-2.7 6.804-2.7 2.64 0 4.788.936 6.444 2.808 1.68 1.848 2.52 4.08 2.52 6.696 0 .456-.036.924-.108 1.404h-15.084zm6.228-7.956c-1.68 0-3.072.48-4.176 1.44-1.104.936-1.788 2.196-2.052 3.78h12.024c-.264-1.704-.936-3-2.016-3.888-1.08-.888-2.34-1.332-3.78-1.332zM247.141 31h3.132v18h-3.132v-7.524h-9.324V49h-3.132V31h3.132v7.488h9.324V31zm22.803 0h3.132v18h-3.132v-3.096c-1.56 2.376-3.828 3.564-6.804 3.564-2.52 0-4.668-.912-6.444-2.736-1.776-1.848-2.664-4.092-2.664-6.732 0-2.64.888-4.872 2.664-6.696 1.776-1.848 3.924-2.772 6.444-2.772 2.976 0 5.244 1.188 6.804 3.564V31zm-6.408 15.444c1.824 0 3.348-.612 4.572-1.836 1.224-1.248 1.836-2.784 1.836-4.608 0-1.824-.612-3.348-1.836-4.572-1.224-1.248-2.748-1.872-4.572-1.872-1.8 0-3.312.624-4.536 1.872-1.224 1.224-1.836 2.748-1.836 4.572 0 1.824.612 3.36 1.836 4.608 1.224 1.224 2.736 1.836 4.536 1.836zM292.833 31v18h-3.132V34.024h-7.092v7.344c0 2.952-.6 5.016-1.8 6.192-1.176 1.152-2.844 1.632-5.004 1.44v-2.952c1.224.168 2.136-.096 2.736-.792.624-.72.936-2.04.936-3.96V31h13.356zm23.538 2.7c2.184 0 4.032.744 5.544 2.232 1.512 1.464 2.268 3.264 2.268 5.4 0 2.184-.756 4.008-2.268 5.472-1.488 1.464-3.336 2.196-5.544 2.196h-9.468V23.8h15.12v3.168h-11.772V33.7h6.12zm0 12.168c1.248 0 2.304-.432 3.168-1.296.888-.864 1.332-1.944 1.332-3.24 0-1.272-.444-2.34-1.332-3.204-.864-.864-1.92-1.296-3.168-1.296h-6.12v9.036h6.12zM339.077 31h3.348l-7.344 19.116c-.768 2.04-1.848 3.588-3.24 4.644-1.392 1.08-2.976 1.56-4.752 1.44v-2.916c2.208.168 3.828-1.032 4.86-3.6l.288-.648L324.425 31h3.312l6.156 14.112L339.077 31zm21.587 18h-3.672l-5.04-6.804L346.876 49h-3.672l6.912-9.252L343.6 31h3.708l4.644 6.264L356.596 31h3.672l-6.48 8.712L360.664 49zm14.711-18v3.024h-8.676V49h-3.132V31h11.808zm16.948 0h3.132v18h-3.132v-3.096c-1.56 2.376-3.828 3.564-6.804 3.564-2.52 0-4.668-.912-6.444-2.736-1.776-1.848-2.664-4.092-2.664-6.732 0-2.64.888-4.872 2.664-6.696 1.776-1.848 3.924-2.772 6.444-2.772 2.976 0 5.244 1.188 6.804 3.564V31zm-6.408 15.444c1.824 0 3.348-.612 4.572-1.836 1.224-1.248 1.836-2.784 1.836-4.608 0-1.824-.612-3.348-1.836-4.572-1.224-1.248-2.748-1.872-4.572-1.872-1.8 0-3.312.624-4.536 1.872-1.224 1.224-1.836 2.748-1.836 4.572 0 1.824.612 3.36 1.836 4.608 1.224 1.224 2.736 1.836 4.536 1.836zM415.212 31v18h-3.132V34.024h-7.092v7.344c0 2.952-.6 5.016-1.8 6.192-1.176 1.152-2.844 1.632-5.004 1.44v-2.952c1.224.168 2.136-.096 2.736-.792.624-.72.936-2.04.936-3.96V31h13.356zm18.138 0v3.024h-6.12V49h-3.132V34.024h-6.156V31h15.408zm4.238 10.44c.312 1.608 1.044 2.856 2.196 3.744 1.176.888 2.616 1.332 4.32 1.332 2.376 0 4.104-.876 5.184-2.628l2.664 1.512c-1.752 2.712-4.392 4.068-7.92 4.068-2.856 0-5.184-.888-6.984-2.664-1.776-1.8-2.664-4.068-2.664-6.804 0-2.712.876-4.968 2.628-6.768 1.752-1.8 4.02-2.7 6.804-2.7 2.64 0 4.788.936 6.444 2.808 1.68 1.848 2.52 4.08 2.52 6.696 0 .456-.036.924-.108 1.404h-15.084zm6.228-7.956c-1.68 0-3.072.48-4.176 1.44-1.104.936-1.788 2.196-2.052 3.78h12.024c-.264-1.704-.936-3-2.016-3.888-1.08-.888-2.34-1.332-3.78-1.332zm22.5-2.952c2.52 0 4.668.924 6.444 2.772 1.776 1.824 2.664 4.056 2.664 6.696 0 2.64-.888 4.884-2.664 6.732-1.776 1.824-3.924 2.736-6.444 2.736-2.976 0-5.244-1.188-6.804-3.564V56.2h-3.132V31h3.132v3.096c1.56-2.376 3.828-3.564 6.804-3.564zm-.396 15.912c1.8 0 3.312-.612 4.536-1.836 1.224-1.248 1.836-2.784 1.836-4.608 0-1.824-.612-3.348-1.836-4.572-1.224-1.248-2.736-1.872-4.536-1.872-1.824 0-3.348.624-4.572 1.872-1.224 1.224-1.836 2.748-1.836 4.572 0 1.824.612 3.36 1.836 4.608 1.224 1.224 2.748 1.836 4.572 1.836zM494.065 31h3.132v18h-3.132v-3.096c-1.56 2.376-3.828 3.564-6.804 3.564-2.52 0-4.668-.912-6.444-2.736-1.776-1.848-2.664-4.092-2.664-6.732 0-2.64.888-4.872 2.664-6.696 1.776-1.848 3.924-2.772 6.444-2.772 2.976 0 5.244 1.188 6.804 3.564V31zm-6.408 15.444c1.824 0 3.348-.612 4.572-1.836 1.224-1.248 1.836-2.784 1.836-4.608 0-1.824-.612-3.348-1.836-4.572-1.224-1.248-2.748-1.872-4.572-1.872-1.8 0-3.312.624-4.536 1.872-1.224 1.224-1.836 2.748-1.836 4.572 0 1.824.612 3.36 1.836 4.608 1.224 1.224 2.736 1.836 4.536 1.836z" fill="#000"/></svg>