<svg width="58" height="27" viewBox="0 0 58 27" fill="none" xmlns="http://www.w3.org/2000/svg"><path d="M.375 3.14L6.999.8h4.32V26H6.35V6.056L1.599 7.388.375 3.14zM14.368.8h18.54v4.752h-6.804V26h-4.968V5.552h-6.768V.8zM46.192 26.504c-3.768 0-6.9-1.26-9.396-3.78-2.472-2.496-3.708-5.604-3.708-9.324 0-3.744 1.236-6.852 3.708-9.324 2.496-2.52 5.628-3.78 9.396-3.78 2.28 0 4.38.54 6.3 1.62 1.944 1.056 3.456 2.496 4.536 4.32L52.744 8.72a6.534 6.534 0 0 0-2.664-2.628c-1.152-.648-2.448-.972-3.888-.972-2.448 0-4.428.768-5.94 2.304-1.488 1.56-2.232 3.552-2.232 5.976 0 2.4.744 4.38 2.232 5.94 1.512 1.536 3.492 2.304 5.94 2.304 1.44 0 2.736-.312 3.888-.936 1.176-.648 2.064-1.524 2.664-2.628l4.284 2.484c-1.08 1.824-2.592 3.276-4.536 4.356-1.92 1.056-4.02 1.584-6.3 1.584z" fill="#fff"/></svg>