<svg width="70" height="26" viewBox="0 0 70 26" fill="none" xmlns="http://www.w3.org/2000/svg"><path d="M.972 26v-3.708l8.604-8.856c1.92-2.016 2.88-3.696 2.88-5.04 0-.984-.312-1.776-.936-2.376-.6-.6-1.38-.9-2.34-.9-1.896 0-3.3.984-4.212 2.952L.792 5.624c.792-1.728 1.932-3.048 3.42-3.96C5.7.752 7.332.296 9.108.296c2.28 0 4.236.72 5.868 2.16 1.632 1.416 2.448 3.336 2.448 5.76 0 2.616-1.38 5.304-4.14 8.064l-4.932 4.932h9.468V26H.972zM46.125.8V26h-4.932V9.656l-7.092 11.7h-.576L26.433 9.692V26h-4.968V.8h5.112l7.236 11.916L41.013.8h5.112zm23.523 0V26H64.68V5.552h-8.892V26h-4.967V.8h18.828z" fill="#fff"/></svg>