<svg width="68" height="68" viewBox="0 0 68 68" fill="none" xmlns="http://www.w3.org/2000/svg"><path d="M64.528 46.43H3.473A3.476 3.476 0 0 1 0 42.958v-32.83a3.476 3.476 0 0 1 3.473-3.471h61.055A3.476 3.476 0 0 1 68 10.129v32.83a3.476 3.476 0 0 1-3.472 3.471zM3.473 9.461c-.369 0-.669.3-.669.668v32.83c0 .367.3.667.669.667h61.055c.368 0 .668-.3.668-.668v-32.83c0-.367-.3-.667-.668-.667H3.473z" fill="#fff"/><path d="M26.74 37.2a1.427 1.427 0 0 1-.76-1.246v-18.82a1.402 1.402 0 0 1 2.216-1.143l13.233 9.41a1.401 1.401 0 0 1 0 2.286l-13.233 9.41c-.242.172-.763.482-1.455.103zm2.046-17.349v13.385l9.41-6.692-9.41-6.693zM66.598 54.39H39.796a5.56 5.56 0 0 0-5.37-4.149 5.56 5.56 0 0 0-5.37 4.149H1.401a1.402 1.402 0 0 0 0 2.804h27.653a5.56 5.56 0 0 0 5.37 4.15 5.56 5.56 0 0 0 5.371-4.15h26.802a1.402 1.402 0 0 0 0-2.804zm-32.173 4.148a2.75 2.75 0 0 1-2.746-2.746 2.75 2.75 0 0 1 2.746-2.746 2.75 2.75 0 0 1 2.747 2.746 2.75 2.75 0 0 1-2.747 2.746z" fill="#fff"/></svg>