<svg width="63" height="63" viewBox="0 0 63 63" fill="none" xmlns="http://www.w3.org/2000/svg"><path d="M55.445 2.338H14.923a.861.861 0 0 0-.861.861v7.847H7.553a.862.862 0 0 0-.861.861v47.894a.861.861 0 0 0 .861.861H48.08a.861.861 0 0 0 .861-.861v-7.846h6.505a.861.861 0 0 0 .861-.861V3.199a.86.86 0 0 0-.861-.861zM8.416 58.94V12.768h38.802v46.17l-38.802.002zm46.168-8.707H48.94V11.907a.862.862 0 0 0-.861-.861H15.784V4.06h38.8v46.172z" fill="#fff"/><path d="M41.966 17.276H31.5a.862.862 0 0 0 0 1.722h10.466a.861.861 0 1 0 0-1.722zM41.966 26.135h-28.3a.862.862 0 0 0 0 1.723h28.3a.861.861 0 0 0 0-1.723zM41.966 30.565h-28.3a.861.861 0 0 0 0 1.723h28.3a.861.861 0 0 0 0-1.723zM41.966 34.995h-28.3a.862.862 0 0 0 0 1.722h28.3a.861.861 0 0 0 0-1.722zM41.966 39.424h-28.3a.861.861 0 1 0 0 1.723h28.3a.861.861 0 0 0 0-1.723zM41.966 43.854h-28.3a.861.861 0 1 0 0 1.723h28.3a.861.861 0 1 0 0-1.723zM41.966 48.284h-28.3a.862.862 0 1 0 0 1.722h28.3a.861.861 0 1 0 0-1.722zM36.668 52.713H18.964a.862.862 0 0 0 0 1.723h17.704a.861.861 0 1 0 0-1.723z" fill="#fff"/></svg>